<svg width="80" height="81" viewBox="0 0 80 81" fill="none" xmlns="http://www.w3.org/2000/svg">
<g clip-path="url(#clip0_2353_8766)">
<path d="M56.959 79.4117C57.0129 79.4365 57.5113 79.6595 58.0199 79.3869C58.4774 79.1407 58.5925 78.6816 58.6086 78.6117C58.5663 78.5724 58.2093 78.2503 57.7561 78.3377C57.3116 78.4237 56.959 78.8682 56.959 79.4117Z" fill="#CA8D60"/>
<path d="M46.547 17.3905C46.4625 18.2619 46.4362 19.2864 46.5499 20.4201C46.5995 20.9112 46.6694 21.3717 46.7525 21.8001L46.6126 21.8744C46.4144 21.1924 46.2964 20.6066 46.222 20.1636C46.0486 19.1202 46.0428 18.4033 46.0457 18.1366C46.0501 17.5799 46.069 17.3016 46.1521 17.0204C46.4654 15.9522 47.315 15.4422 47.1255 14.852C47.0876 14.7354 47.0148 14.6305 46.9958 14.4148C46.9652 14.0695 47.1168 13.9179 47.0148 13.7736C46.9346 13.66 46.818 13.7183 46.5222 13.5871C46.2526 13.4676 46.2483 13.3758 46.0938 13.3263C45.6727 13.1922 45.1612 13.7168 45.0985 13.7824C44.6686 14.2327 44.6293 14.801 44.6234 15.0006C44.2519 13.9602 44.7386 12.8395 45.6552 12.4417C46.5062 12.0745 47.5204 12.4184 47.962 13.0742C48.4501 13.7999 48.0931 14.7165 47.7769 15.5296C47.4243 16.4345 46.8938 17.048 46.5485 17.3905H46.547Z" fill="#CA8D60"/>
<path d="M57.0274 62.4716C56.9793 62.2399 56.9123 61.9062 56.8351 61.504C56.7141 60.8745 56.2565 58.4598 55.8485 54.9493C55.423 51.2815 55.2088 49.4468 55.2816 48.402C55.3443 47.4825 55.1592 46.5629 55.1228 45.6434C55.1214 45.6157 55.0397 45.2981 54.9377 44.858C54.8678 44.5622 54.8343 44.4135 54.8066 44.2911C54.6929 43.7621 54.6448 43.3643 54.6215 43.1865C54.5778 42.863 54.5137 42.5468 54.4394 42.2335C54.4379 42.2262 54.4364 42.2204 54.4335 42.2131C54.1173 41.3475 53.9512 40.6247 53.8579 40.1234C53.7355 39.4633 53.7151 39.1806 53.5971 38.2815C53.4514 37.1565 53.3362 36.2749 53.157 35.485C52.988 34.7433 52.8335 34.3965 51.9664 32.3097C51.6852 31.6336 51.2058 30.478 50.5879 28.9712C50.668 29.1125 50.7642 29.286 50.8721 29.4841C50.9216 29.5759 50.9726 29.6692 51.0251 29.7668C51.6662 30.9589 52.4838 32.5822 53.2721 34.4489H53.2736C53.275 34.4548 53.2779 34.4606 53.2809 34.4664C53.4659 34.9036 53.6321 35.3335 53.7836 35.7634C54.0007 36.3769 54.1873 36.9904 54.3505 37.6257C54.4962 38.1897 54.6259 38.7696 54.7425 39.3817C54.776 39.5536 54.8095 39.73 54.8416 39.9077C54.9509 40.5198 55.0529 41.1668 55.1505 41.8619C55.1505 41.8706 55.1534 41.8794 55.1549 41.8881C55.2452 42.5235 55.3341 43.2011 55.4259 43.9283C55.525 44.7166 55.627 45.5633 55.7378 46.4843C55.7625 46.6883 55.7844 46.8748 55.8033 47.0482C55.8077 47.0832 55.8106 47.1167 55.815 47.1502C55.8412 47.3863 55.8645 47.599 55.8835 47.8001C55.8879 47.8409 55.8908 47.8832 55.8951 47.9225C55.8966 47.9386 55.8981 47.9531 55.8995 47.9677C55.9039 48.01 55.9068 48.0522 55.9112 48.0945C55.917 48.163 55.9228 48.23 55.9287 48.2956C55.9345 48.3583 55.9403 48.4209 55.9447 48.4836C55.9491 48.5288 55.9534 48.5739 55.9563 48.6176C56.0423 49.6188 56.0802 50.3314 56.1356 51.2144C56.1356 51.2246 56.137 51.2334 56.137 51.2436C56.1385 51.2625 56.14 51.2829 56.1414 51.3033C56.1458 51.3747 56.1502 51.4578 56.1604 51.5773C56.1633 51.6297 56.1676 51.688 56.1735 51.7565C56.1764 51.79 56.1778 51.8279 56.1822 51.8673C56.1895 51.9693 56.1968 52.0757 56.2055 52.185C56.2128 52.2738 56.2201 52.37 56.2274 52.4779C56.2303 52.5201 56.2332 52.5638 56.2376 52.6076C56.242 52.6833 56.2478 52.7591 56.2551 52.8378C56.293 53.3027 56.3411 53.9191 56.4066 54.7439C56.4329 55.0761 56.462 55.4433 56.4941 55.8514C56.4955 55.8747 56.497 55.8965 56.4999 55.9199C56.5043 55.9913 56.5116 56.0641 56.5174 56.1384C56.5218 56.1924 56.5261 56.2477 56.5305 56.3031C56.5422 56.4343 56.5524 56.5698 56.564 56.7097C56.6806 58.1727 56.8321 60.0569 57.0274 62.4701V62.4716Z" fill="#CA8D60"/>
<path d="M58.3883 78.3612C58.2936 78.3248 58.0269 78.2373 57.7093 78.3248C57.326 78.4297 57.1249 78.7182 57.055 78.8377C57.0448 78.8333 57.0331 78.829 57.0229 78.8246C57.004 78.8158 56.9836 78.8071 56.9646 78.7984C56.9807 78.7794 56.9967 78.7605 57.0142 78.7401C57.2736 78.4224 57.5635 77.9575 57.6349 77.3659C57.7136 76.7087 57.4819 76.2176 57.3362 75.8416C56.8014 74.4631 56.7927 72.7712 56.9282 71.8969C56.9486 71.7643 57.0258 71.3184 57.0112 70.7063C57.004 70.4324 56.9821 70.2284 56.9734 70.1569C56.8568 69.0932 56.7023 67.0006 56.6848 66.7616C56.5828 65.335 56.765 65.2767 56.8145 62.7804C56.8408 61.4995 56.8145 60.4634 56.7898 59.8164C56.9049 60.6601 57.0491 61.8682 57.1613 63.3269C57.2313 64.2377 57.3581 65.9455 57.3479 68.1387C57.3333 70.9963 57.0972 71.8896 57.345 73.8904C57.4834 75.0023 57.7151 76.015 57.7442 76.1374C57.9672 77.0934 58.2135 77.8614 58.3869 78.3597L58.3883 78.3612Z" fill="#CA8D60"/>
<path d="M56.567 56.7488C56.5991 56.4865 56.6559 56.1397 56.7681 55.7419C56.7681 55.7419 56.9838 54.7903 57.5434 53.999C58.4585 52.7064 59.4218 52.7429 61.0961 51.4139C62.1031 50.6139 64.1709 48.9745 63.8314 47.3584V47.3555C63.7425 46.9387 63.5006 46.5569 63.1741 46.2451C62.9716 46.0512 62.7384 45.8851 62.4863 45.7511C62.1118 45.5529 61.7009 45.429 61.3016 45.4057C61.169 45.3984 61.0408 45.4013 60.914 45.4159C59.2921 45.582 58.0869 47.3759 57.6367 48.5489C57.3991 49.1668 57.3875 49.5676 57.3277 50.2554C57.3102 50.4448 57.2898 50.6561 57.2607 50.8995C57.1878 51.4969 57.1048 51.9458 57.0406 52.2693C56.8337 53.3214 56.5496 54.2875 56.4082 54.7437" stroke="#CA8D60" stroke-width="0.291447" stroke-miterlimit="10"/>
<path d="M55.0711 53.0868L55.0682 53.0839C55.023 53.0329 54.9735 52.9789 54.9225 52.925C54.3687 52.3407 53.5599 51.6791 52.4845 51.408C52.4131 51.3906 52.3402 51.3745 52.2659 51.36C51.9293 51.2958 51.6597 51.2856 51.4061 51.3002C51.3726 51.3017 51.3406 51.3046 51.3085 51.3075C51.275 51.309 51.2415 51.3119 51.2094 51.3162C51.1176 51.325 51.0243 51.3352 50.9311 51.3468C50.9238 51.3468 50.918 51.3483 50.9107 51.3498C50.8772 51.3541 50.8422 51.3585 50.8072 51.3629C50.7518 51.3702 50.6965 51.376 50.6382 51.3818C50.5464 51.3935 50.4502 51.4022 50.3467 51.4095C50.0465 51.4343 49.6924 51.443 49.2392 51.4095C48.005 51.3177 46.7415 51.2244 45.9153 50.2685C45.8788 50.2262 45.8453 50.1854 45.8133 50.1417C45.7841 50.1038 45.7564 50.0659 45.7302 50.028C45.7258 50.0208 45.72 50.012 45.7142 50.0047C45.6894 49.9668 45.6661 49.9304 45.6428 49.8925C45.6253 49.8619 45.6078 49.8313 45.5918 49.8007C45.5757 49.7716 45.5597 49.7424 45.5451 49.7118C45.5131 49.6492 45.4854 49.5865 45.4592 49.5224C45.449 49.4991 45.4402 49.4758 45.4315 49.4524C45.4184 49.4218 45.4067 49.3898 45.3965 49.3577L45.3703 49.279C45.3615 49.2528 45.3542 49.2251 45.3455 49.1989C45.3353 49.1595 45.3236 49.1187 45.3149 49.0794C45.3134 49.0765 45.312 49.0721 45.312 49.0692C45.3018 49.0255 45.2916 48.9832 45.2843 48.9409C45.2741 48.8958 45.2668 48.8506 45.2595 48.8069C45.2493 48.7442 45.2406 48.683 45.2362 48.6233C45.2333 48.597 45.2304 48.5708 45.2289 48.546C45.2275 48.5388 45.2275 48.5315 45.226 48.5242C45.2231 48.495 45.2216 48.4659 45.2202 48.4367C45.2173 48.4047 45.2158 48.3741 45.2158 48.3435C45.2143 48.3202 45.2129 48.2954 45.2143 48.2721C45.2129 48.2473 45.2129 48.224 45.2129 48.2021C45.2129 47.7562 45.2858 47.4342 45.296 47.3905C45.296 47.3875 45.296 47.3817 45.3003 47.3759C45.3076 47.3438 45.3266 47.2753 45.3586 47.1792C45.3703 47.1427 45.3848 47.1034 45.4009 47.0611C45.4198 47.0072 45.4431 46.9504 45.4694 46.8892C45.5043 46.8061 45.5466 46.7143 45.5947 46.6196C45.6122 46.5861 45.6297 46.5525 45.6486 46.5176C45.6617 46.4928 45.6763 46.468 45.6909 46.4418C45.7462 46.3456 45.8089 46.2451 45.8803 46.146C45.8978 46.1183 45.9182 46.0921 45.9386 46.0644C45.9503 46.0498 45.9619 46.0338 45.9736 46.0177C45.9852 46.0017 45.9983 45.9857 46.0115 45.9711C46.0362 45.939 46.0625 45.9084 46.0887 45.8778C46.0901 45.8764 46.0916 45.8735 46.0945 45.872C46.1237 45.8385 46.1528 45.8035 46.1834 45.7715C46.1878 45.7671 46.1922 45.7642 46.1951 45.7598C46.1994 45.7569 46.2024 45.7525 46.2067 45.7481L46.2096 45.7452C46.2271 45.7263 46.2461 45.7073 46.265 45.6899C46.2854 45.6695 46.3058 45.6505 46.3262 45.6316C46.3772 45.5849 46.4311 45.5383 46.488 45.4946C46.5157 45.4713 46.5448 45.4494 46.5739 45.429C46.5914 45.4144 46.6104 45.4013 46.6293 45.3882C46.6745 45.3561 46.7226 45.3256 46.7721 45.2964C46.8056 45.276 46.8392 45.2556 46.8741 45.2367C46.8785 45.2352 46.8814 45.2323 46.8858 45.2308C46.9237 45.2104 46.963 45.19 47.0038 45.1711L47.0126 45.1667C47.0505 45.1492 47.0898 45.1317 47.1292 45.1157C47.1787 45.0953 47.2282 45.0764 47.2792 45.0589C47.6173 44.9438 47.951 44.9073 48.2702 44.9248C48.3183 44.9263 48.3663 44.9306 48.413 44.935C48.4567 44.9394 48.499 44.9452 48.5412 44.951C48.5791 44.9554 48.617 44.9627 48.6534 44.97C48.6899 44.9758 48.7277 44.9831 48.7642 44.9918C48.7977 44.9977 48.8312 45.005 48.8647 45.0152C48.9026 45.0239 48.9405 45.0341 48.9784 45.0443C49.0163 45.0545 49.0527 45.0662 49.0891 45.0778C49.1314 45.0909 49.1737 45.1055 49.2159 45.1201C49.283 45.1434 49.3485 45.1696 49.4112 45.1959C49.4753 45.2221 49.5365 45.2483 49.5963 45.2775C49.6006 45.2789 49.6035 45.2818 49.6079 45.2833C49.6473 45.3022 49.6866 45.3212 49.7245 45.3401C49.7624 45.3591 49.8003 45.3795 49.8367 45.3984C50.0669 45.5223 50.2637 45.652 50.4181 45.7613C50.4691 45.7977 50.5143 45.8312 50.5551 45.8618C50.6163 45.9084 50.6659 45.9478 50.7023 45.9769C50.7591 46.0206 50.8116 46.0658 50.8626 46.111C50.8859 46.1314 50.9107 46.1533 50.934 46.1737C50.934 46.1766 50.9369 46.178 50.9398 46.178L50.9544 46.1926C50.9719 46.2101 50.9894 46.2261 51.0069 46.2436C51.0345 46.2698 51.0622 46.2961 51.087 46.3238C51.1074 46.3427 51.1264 46.3631 51.1424 46.382C51.2109 46.4534 51.2721 46.5263 51.3304 46.6006C51.3318 46.6035 51.3347 46.6065 51.3376 46.6108C51.3683 46.6487 51.3974 46.6881 51.4265 46.7289C51.4557 46.7682 51.4834 46.809 51.5111 46.8498C51.53 46.8775 51.549 46.9067 51.5679 46.9358C51.6087 46.9985 51.648 47.0626 51.6874 47.1296C51.7209 47.185 51.753 47.2418 51.7865 47.3001C51.7923 47.3088 51.7967 47.3176 51.8011 47.3278C51.8244 47.3671 51.8477 47.4094 51.871 47.4517C51.9293 47.5551 51.989 47.6644 52.0532 47.7795C52.0852 47.8378 52.1173 47.8961 52.1522 47.9573C52.1726 47.9967 52.196 48.036 52.2178 48.0768C52.2994 48.2196 52.3883 48.3726 52.486 48.5344C52.5195 48.5883 52.553 48.6437 52.588 48.7005C52.6156 48.7457 52.6433 48.7909 52.6725 48.836C52.7876 49.0196 52.9144 49.2149 53.0586 49.4248C53.5862 50.1942 54.0933 50.8179 54.4969 51.2769C54.4984 51.2769 54.4984 51.2784 54.4999 51.2784C54.631 51.4299 54.7534 51.564 54.8598 51.6791" stroke="#CA8D60" stroke-width="0.145724" stroke-miterlimit="10"/>
<path d="M56.5916 74.3523C56.5785 74.345 56.5654 74.3362 56.5522 74.3289C56.0859 74.0477 55.3865 73.6572 54.499 73.2725C52.7503 72.5161 52.182 72.608 51.5787 71.9711C51.5539 71.9449 51.5292 71.9172 51.5073 71.8895C50.8282 71.1085 50.4989 69.7591 50.955 68.9051C51.0133 68.7958 51.0847 68.6938 51.1692 68.6035C51.3557 68.4053 51.5889 68.277 51.8454 68.2013C51.8935 68.1867 51.943 68.1736 51.9926 68.1634H51.994C52.3161 68.0949 52.6643 68.0993 52.9966 68.1459C53.374 68.1984 53.7296 68.3047 53.9977 68.4184C54.276 68.535 54.5238 68.6865 54.7438 68.8614C54.8342 68.9328 54.9201 69.0086 55.0017 69.0887C55.0236 69.1091 55.0455 69.131 55.0659 69.1528C55.165 69.2534 55.2582 69.3612 55.3442 69.472C55.3879 69.5259 55.4287 69.5813 55.4681 69.6381C55.5074 69.6935 55.5453 69.7503 55.5817 69.8086C55.5948 69.8305 55.6094 69.8509 55.6225 69.8727C55.6968 69.9966 55.7668 70.1219 55.8295 70.2472C55.844 70.2778 55.8586 70.307 55.8732 70.3376C55.9592 70.5154 56.032 70.6946 56.0961 70.8709L56.1267 70.9584C56.1311 70.9686 56.134 70.9788 56.1369 70.9875C56.1457 71.0123 56.1544 71.0371 56.1617 71.0618C56.1894 71.1434 56.2142 71.2236 56.236 71.3023C56.2491 71.346 56.2608 71.3897 56.2725 71.432C56.2987 71.5267 56.322 71.6199 56.3424 71.7088C56.3468 71.7322 56.3526 71.7555 56.357 71.7788C56.3686 71.8283 56.3788 71.8764 56.3876 71.9245C56.3919 71.9478 56.3963 71.9711 56.4007 71.993C56.4532 72.267 56.4794 72.4855 56.491 72.6167C56.4925 72.6269 56.494 72.6371 56.494 72.6473C56.494 72.6531 56.4954 72.6575 56.4954 72.6633C56.4954 72.6721 56.4954 72.6794 56.4954 72.6852C56.4983 72.7129 56.4998 72.7304 56.4998 72.7406C56.4998 72.742 56.5012 72.742 56.4998 72.7435" stroke="#CA8D60" stroke-width="0.291447" stroke-miterlimit="10"/>
<path d="M45.7419 20.8631C45.5379 20.9185 44.853 21.0773 44.155 20.7261C43.9276 20.6125 42.9513 20.0675 43.0387 19.1392C43.0985 18.5053 43.6318 17.9195 44.3036 17.8364C44.8909 17.7636 45.328 18.109 45.4198 18.1833" stroke="#CA8D60" stroke-width="0.291447" stroke-miterlimit="10"/>
<path d="M61.0953 51.4153C59.4209 52.7443 58.4577 52.7079 57.5425 54.0005C57.1301 54.5819 56.897 55.194 56.7673 55.7433C56.6988 55.7739 56.6303 55.806 56.5632 55.8366C56.5487 55.4941 56.5341 55.1502 56.5195 54.8078C56.7658 54.0996 57.0587 53.5954 57.2817 53.2631C57.4857 52.96 57.6023 52.8478 57.8485 52.4471C58.2085 51.8671 58.1939 51.7345 58.4402 51.3469C58.8351 50.7261 59.3509 50.3661 59.5316 50.1942C60.4293 49.3315 60.6799 49.2834 60.7601 48.9045C60.8344 48.5519 60.6654 48.4805 60.7353 47.8014C60.7747 47.424 60.8431 47.2797 60.7601 47.0568C60.6654 46.8032 60.3929 46.5088 60.116 46.5234C59.7517 46.5423 59.7502 47.0713 59.0988 47.5406C58.6748 47.8466 58.548 47.714 58.3294 47.9748C58.0219 48.3406 58.2449 48.632 57.9695 49.4379C57.8471 49.7964 57.7859 49.7891 57.5979 50.2933C57.4507 50.6882 57.3633 51.0233 57.3123 51.2478C57.2569 50.7334 57.235 49.9479 57.4813 49.0371C57.544 48.804 57.6052 48.6277 57.6358 48.5504C58.0861 47.3773 59.2912 45.5835 60.9131 45.4174C61.0399 45.4028 61.1681 45.3999 61.3007 45.4072C61.7 45.4305 62.1109 45.5543 62.4854 45.7525C62.7376 45.8866 62.9707 46.0527 63.1733 46.2465C63.4997 46.5584 63.7416 46.9402 63.8305 47.3569V47.3599C64.17 48.9759 62.1022 50.6153 61.0953 51.4153Z" fill="#CA8D60"/>
<path d="M54.9137 52.2955C54.9137 52.2168 54.9195 52.1381 54.9254 52.0653V52.0623C54.9399 51.8408 54.9545 51.6514 54.851 51.5348C54.8496 51.5319 54.8481 51.5305 54.8452 51.5275C54.8277 51.5086 54.7767 51.4591 54.7082 51.408C54.6266 51.3454 54.5523 51.3046 54.4999 51.2784C54.4984 51.2784 54.4984 51.2769 54.4969 51.2769C54.0933 50.8179 53.5862 50.1942 53.0586 49.4248C52.9144 49.2149 52.7876 49.0196 52.6725 48.836C52.6433 48.7909 52.6156 48.7457 52.588 48.7005C52.553 48.6437 52.5195 48.5883 52.486 48.5344C52.3883 48.3726 52.2994 48.2196 52.2178 48.0768C52.196 48.036 52.1726 47.9967 52.1522 47.9573C52.1173 47.8961 52.0852 47.8378 52.0532 47.7795C51.989 47.6644 51.9293 47.5551 51.871 47.4517C51.8477 47.4094 51.8244 47.3671 51.8011 47.3278C51.7967 47.3176 51.7923 47.3088 51.7865 47.3001C51.753 47.2418 51.7209 47.185 51.6874 47.1296C51.648 47.0626 51.6087 46.9985 51.5679 46.9358C51.549 46.9067 51.53 46.8775 51.5111 46.8498C51.4834 46.809 51.4557 46.7682 51.4265 46.7289C51.3974 46.6881 51.3683 46.6487 51.3376 46.6108C51.3347 46.6065 51.3318 46.6035 51.3304 46.6006C51.2706 46.5263 51.2094 46.4534 51.1424 46.382C51.1249 46.3616 51.1059 46.3427 51.087 46.3238C51.0608 46.2975 51.0345 46.2698 51.0069 46.2436C50.9894 46.2261 50.9719 46.2101 50.9544 46.1926C50.95 46.1882 50.9442 46.1824 50.9398 46.178C50.9369 46.178 50.9355 46.1766 50.934 46.1737C50.9107 46.1533 50.8859 46.1314 50.8626 46.111C50.8116 46.0658 50.7591 46.0206 50.7023 45.9769C50.6659 45.9478 50.6163 45.9084 50.5551 45.8618C50.5143 45.8312 50.4691 45.7977 50.4181 45.7613C50.2637 45.652 50.0669 45.5223 49.8367 45.3984C49.8003 45.3795 49.7624 45.3591 49.7245 45.3401C49.6866 45.3212 49.6473 45.3022 49.6079 45.2833C49.6035 45.2818 49.6006 45.2789 49.5963 45.2775C49.5365 45.2498 49.4753 45.2221 49.4112 45.1959C49.3485 45.1696 49.2829 45.1434 49.2159 45.1201C49.1737 45.1055 49.1314 45.0909 49.0891 45.0778C49.0527 45.0662 49.0163 45.0545 48.9784 45.0443C48.9405 45.0341 48.9026 45.0239 48.8647 45.0152C48.8312 45.0064 48.7977 44.9991 48.7642 44.9918C48.7277 44.9831 48.6899 44.9758 48.6534 44.97C48.6155 44.9627 48.5791 44.9569 48.5412 44.951C48.499 44.9452 48.4567 44.9394 48.413 44.935C48.3663 44.9306 48.3183 44.9263 48.2702 44.9248C47.951 44.9073 47.6173 44.9438 47.2792 45.0589C47.2282 45.0764 47.1787 45.0953 47.1292 45.1157C47.0898 45.1317 47.0505 45.1492 47.0126 45.1667C47.0097 45.1682 47.0067 45.1696 47.0038 45.1711C46.963 45.19 46.9237 45.2104 46.8858 45.2308C46.8814 45.2323 46.8785 45.2352 46.8741 45.2367C46.8392 45.2556 46.8056 45.276 46.7721 45.2964C46.7226 45.3256 46.6745 45.3561 46.6293 45.3882C46.6104 45.4013 46.5914 45.4144 46.5739 45.429C46.5448 45.4494 46.5157 45.4713 46.488 45.4946C46.4311 45.5383 46.3772 45.5849 46.3262 45.6316C46.3058 45.6505 46.2854 45.6695 46.265 45.6899C46.2461 45.7073 46.2271 45.7263 46.2096 45.7452C46.2096 45.7452 46.2087 45.7462 46.2067 45.7481C46.2067 45.7481 46.1994 45.7569 46.1951 45.7598C46.1922 45.7642 46.1878 45.7671 46.1834 45.7715C46.1528 45.8035 46.1237 45.8385 46.0945 45.872C46.0916 45.8735 46.0901 45.8764 46.0887 45.8778C46.0625 45.9084 46.0362 45.939 46.0115 45.9711C45.9983 45.9857 45.9852 46.0017 45.9736 46.0177C45.9619 46.0338 45.9503 46.0498 45.9386 46.0644C45.9182 46.0921 45.8978 46.1183 45.8803 46.146C45.8089 46.2451 45.7462 46.3456 45.6909 46.4418C45.6763 46.468 45.6617 46.4928 45.6486 46.5176C45.6297 46.5525 45.6122 46.5861 45.5947 46.6196C45.5466 46.7143 45.5043 46.8061 45.4694 46.8892C45.4431 46.9504 45.4198 47.0072 45.4009 47.0611C45.3848 47.1034 45.3717 47.1427 45.3586 47.1792C45.3266 47.2753 45.3076 47.3438 45.3003 47.3759C45.2974 47.3817 45.2974 47.3875 45.296 47.3905C45.2858 47.4342 45.2129 47.7562 45.2129 48.2021C45.2129 48.224 45.2129 48.2473 45.2143 48.2721C45.2129 48.2954 45.2143 48.3202 45.2143 48.3435C45.2143 48.3741 45.2158 48.4047 45.2187 48.4367C45.2202 48.4659 45.2216 48.495 45.2245 48.5242C45.226 48.5315 45.226 48.5388 45.2275 48.546C45.2289 48.5708 45.2318 48.597 45.2347 48.6233C45.2391 48.683 45.2479 48.7442 45.2581 48.8069C45.2654 48.8506 45.2726 48.8958 45.2828 48.9409C45.2901 48.9832 45.3003 49.0255 45.3105 49.0692C45.3105 49.0721 45.312 49.0765 45.3134 49.0794C45.3222 49.1187 45.3338 49.1595 45.344 49.1989C45.3528 49.2251 45.3601 49.2528 45.3688 49.279C45.3776 49.3053 45.3863 49.3315 45.395 49.3577C45.4052 49.3898 45.4169 49.4218 45.43 49.4524C45.4388 49.4758 45.4475 49.4991 45.4577 49.5224C45.4839 49.5865 45.5116 49.6492 45.5437 49.7118C45.5583 49.7424 45.5743 49.7716 45.5903 49.8007C45.6063 49.8313 45.6238 49.8619 45.6413 49.8925C45.6646 49.9304 45.6879 49.9668 45.7127 50.0047C45.7186 50.012 45.7244 50.0208 45.7288 50.028C45.755 50.0659 45.7827 50.1038 45.8118 50.1417C45.8439 50.1854 45.8774 50.2262 45.9138 50.2685C46.7401 51.2244 48.0035 51.3177 49.2378 51.4095C49.691 51.443 50.0451 51.4343 50.3453 51.4095C50.4473 51.4008 50.5435 51.392 50.6367 51.3818C50.695 51.376 50.7504 51.3687 50.8058 51.3629C50.8407 51.3585 50.8757 51.3541 50.9092 51.3498C50.9165 51.3483 50.9223 51.3468 50.9296 51.3468C51.0229 51.3352 51.1162 51.325 51.208 51.3162C51.24 51.3119 51.2735 51.309 51.307 51.3075C51.3391 51.3046 51.3712 51.3017 51.4047 51.3002C51.6582 51.2856 51.9278 51.2958 52.2645 51.36C52.3388 51.3745 52.4116 51.3906 52.483 51.408C53.6153 51.682 54.4532 52.3596 54.9924 52.9032C54.9239 52.6496 54.9108 52.4412 54.9122 52.2955H54.9137ZM49.5802 49.6667C49.4636 49.5442 49.1839 49.2411 48.7248 49.1275C48.3372 49.0313 48.2192 49.1741 47.8126 49.0779C47.6596 49.0415 47.1073 48.9103 46.8581 48.4076C46.6279 47.9442 46.81 47.4779 46.845 47.3905C46.8873 47.2884 47.0111 46.9999 47.3157 46.8207C47.613 46.6443 47.9102 46.6749 48.2585 46.7085C48.6607 46.7493 48.9594 46.876 49.1766 46.9693C49.3937 47.064 49.5598 47.1588 49.7347 47.2666C50.5201 47.7518 50.9121 47.9937 51.1613 48.3275C51.6174 48.938 51.4397 49.1726 51.7748 49.5923C52.0459 49.9319 52.3198 50.1155 52.5938 50.2991C50.7956 50.474 49.9839 50.0878 49.5802 49.6667Z" fill="#CA8D60"/>
<path d="M58.3521 30.7752C58.2355 29.5468 57.1294 28.448 55.8485 28.228C55.8165 28.2221 55.5075 28.174 55.0922 28.2119C55.0674 28.2134 55.0441 28.2163 55.0194 28.2178C55.0004 28.2207 54.9786 28.2221 54.9596 28.225C54.9582 28.225 54.9552 28.225 54.9538 28.225C54.9523 28.225 54.9494 28.225 54.9479 28.225C54.7877 28.2367 54.5705 28.2673 54.3272 28.3518C54.0722 28.4407 53.874 28.5588 53.7384 28.6549C53.7384 28.6549 53.7384 28.6549 53.7384 28.6564C53.6044 28.7438 53.4732 28.8444 53.3508 28.9668C52.8685 29.4535 52.7213 30.0204 52.6105 30.4473C52.3818 31.3246 52.5027 32.0415 52.6105 32.6769C52.6834 33.1184 52.8277 33.7232 53.122 34.411C53.1453 34.6238 53.2852 35.8333 53.6 35.8566C53.67 35.8624 53.7516 35.8085 53.8317 35.7182C53.8317 35.7298 53.8317 35.7415 53.8317 35.7546C53.8463 36.2209 53.9658 36.6129 54.0459 36.61C54.1829 36.6056 54.0503 35.4559 54.709 35.1061C54.7439 35.0872 54.7702 35.0784 54.7877 35.0697C55.356 34.8016 56.0802 34.3702 56.7724 33.678C57.5812 32.8693 58.4686 31.9789 58.355 30.7694L58.3521 30.7752ZM55.9228 30.6441C55.8922 30.8976 55.8441 31.0477 55.764 31.1832C55.6314 31.4106 55.4726 31.4936 55.2802 31.6583C55.0412 31.8623 54.9173 32.0503 54.6842 32.4029C54.5734 32.5691 54.604 32.5851 54.5385 32.6652C54.3432 32.9013 53.9497 33.0908 53.6889 32.9611C53.5344 32.8838 53.4616 32.6609 53.3144 32.215C53.2648 32.0663 53.2809 32.0459 53.2007 31.8215C53.1031 31.5519 53.02 31.447 52.9749 31.1512C52.8452 30.2929 53.3668 29.4754 53.396 29.4389C53.5621 29.2276 53.6976 29.1518 53.8186 29.1198C54.027 29.0659 54.2004 29.1416 54.3301 29.1854C55.0645 29.4316 55.4274 28.9901 55.7538 29.2509C56.0569 29.4928 55.9899 30.0684 55.9214 30.6455L55.9228 30.6441Z" fill="#CA8D60"/>
<path d="M56.5027 72.7407C56.4123 72.525 56.2637 72.2131 56.0262 71.8721C55.6517 71.3359 55.5613 71.4525 55.3413 71.0794C54.993 70.4863 55.1314 70.0419 54.6127 69.4531C54.5937 69.4313 54.5762 69.4138 54.5427 69.3774C54.1595 68.965 53.7806 68.6881 53.4833 68.4739C53.3172 68.3529 53.154 68.2436 52.998 68.146C53.3755 68.1985 53.731 68.3048 53.9992 68.4185C54.2775 68.5351 54.5252 68.6866 54.7453 68.8615C54.8356 68.9329 54.9216 69.0087 55.0032 69.0888C55.0251 69.1092 55.0469 69.1311 55.0673 69.1529C55.1664 69.2535 55.2597 69.3613 55.3457 69.4721C55.3894 69.526 55.4302 69.5814 55.4695 69.6382C55.5089 69.6936 55.5468 69.7504 55.5832 69.8087C55.5963 69.8306 55.6109 69.851 55.624 69.8728C55.6983 69.9967 55.7683 70.122 55.8309 70.2473C55.8455 70.2779 55.8601 70.3071 55.8746 70.3377C55.9606 70.5155 56.0335 70.6947 56.0976 70.871C56.1078 70.9002 56.118 70.9293 56.1282 70.9585C56.1326 70.9687 56.1355 70.9789 56.1384 70.9876C56.1471 71.0124 56.1559 71.0372 56.1632 71.0619C56.1909 71.1435 56.2156 71.2237 56.2375 71.3024C56.2506 71.3461 56.2623 71.3898 56.2739 71.4321C56.3001 71.5268 56.3235 71.62 56.3439 71.7089C56.3482 71.7323 56.3541 71.7556 56.3584 71.7789C56.3701 71.8284 56.3803 71.8765 56.389 71.9246C56.3934 71.9479 56.3978 71.9712 56.4021 71.9931C56.4546 72.2671 56.4808 72.4856 56.4925 72.6168C56.494 72.627 56.4954 72.6372 56.4954 72.6474C56.4954 72.6532 56.4969 72.6576 56.4969 72.6634C56.4983 72.6722 56.4983 72.6795 56.4983 72.6853C56.5012 72.713 56.5027 72.7305 56.5027 72.7407Z" fill="#CA8D60"/>
<path d="M56.5522 74.3291C56.0859 74.0478 55.3865 73.6573 54.499 73.2726C52.7503 72.5163 52.182 72.6081 51.5787 71.9713C51.5539 71.9451 51.5292 71.9174 51.5073 71.8897C50.8282 71.1086 50.4989 69.7592 50.955 68.9053C51.0133 68.796 51.0847 68.694 51.1692 68.6036C51.4184 68.3384 51.7099 68.2451 51.8454 68.2014C52.3365 68.044 52.9951 68.1067 53.5168 68.3384C54.8021 68.9067 55.1096 70.4193 55.1416 70.5898C54.9741 70.2678 54.4626 69.3832 53.5168 69.0947C53.2808 69.0233 52.8276 68.8849 52.4501 69.1195C52.3977 69.1515 52.1048 69.3337 52.0902 69.6033C52.0756 69.8802 52.3714 69.9953 52.3787 70.3581C52.3831 70.5651 52.2884 70.5723 52.3044 70.7064C52.3525 71.1159 53.2574 71.0736 54.1493 71.7483C54.5034 72.0165 54.4203 72.0675 54.8065 72.3443C55.4141 72.7771 55.7391 72.7363 56.0714 73.0511C56.2797 73.2478 56.5173 73.6092 56.5522 74.3291Z" fill="#CA8D60"/>
<path d="M45.5122 19.0953C45.5239 19.2177 45.5326 19.3926 45.518 19.6039C45.4976 19.9041 45.4933 20.1649 45.3752 20.2057C45.3388 20.2188 45.2747 20.2144 45.0867 20.0323C44.8229 19.7758 44.4382 19.4042 44.5329 19.0691C44.5869 18.8752 44.7544 18.8636 44.7734 18.6421C44.7865 18.4949 44.7209 18.3929 44.7923 18.288C44.8433 18.2137 44.9293 18.1903 44.9599 18.1831C45.1537 18.1321 45.3198 18.2792 45.3388 18.2953C45.2747 18.2137 45.1435 18.0694 44.9322 17.9659C44.6947 17.8493 44.4776 17.8435 44.3712 17.8479C44.291 17.845 44.1788 17.8479 44.0491 17.8785C43.5741 17.9922 43.3132 18.374 43.2375 18.4993C42.9489 18.97 43.0378 19.4523 43.0582 19.547C43.22 20.3339 43.9967 20.6778 44.1745 20.7565C44.8856 21.0713 45.5515 20.8877 45.7497 20.825C45.671 20.248 45.5923 19.6723 45.5137 19.0953H45.5122Z" fill="#CA8D60"/>
<path d="M46.4868 12.4168C46.4285 11.7815 46.4548 10.9742 46.7841 10.1348C46.9983 9.59125 47.2009 9.38433 47.1061 9.09288C46.8468 8.28703 44.7833 8.27391 44.5268 8.27391C43.3669 8.27537 43.1483 8.59159 42.0714 8.4721C41.4156 8.39923 40.9377 8.22145 40.4845 8.05095C39.0214 7.50158 39.0564 7.07898 38.0043 6.73653C36.6694 6.30081 36.2425 6.86039 35.202 6.31539C34.6482 6.0254 34.3539 5.64652 33.7885 4.90187C32.7261 3.50292 31.9626 1.8169 32.1768 1.67701C32.3473 1.56626 32.8617 2.61692 34.2606 3.58744C35.6202 4.52882 36.9769 4.81298 38.2287 5.07528C39.119 5.26181 40.1712 5.48185 41.5526 5.37256C42.8015 5.27346 42.8627 5.02136 44.3053 4.90187C45.7014 4.78675 46.8016 4.70951 47.5797 5.37256C47.9907 5.72375 47.7459 5.79807 48.5474 6.93471C49.1958 7.85569 49.5383 8.06553 49.7875 8.7956C49.9186 9.18031 50.0731 9.63206 49.9113 10.11C49.7452 10.6026 49.3649 10.7731 48.6464 11.3254C48.269 11.6154 47.7546 12.0452 47.1834 12.6398" stroke="#CA8D60" stroke-width="0.291447" stroke-miterlimit="10"/>
<path d="M43.6081 18.0783C41.9425 15.499 40.1909 14.4294 38.8954 13.9296C36.676 13.0727 35.2421 13.6775 33.0417 12.2188C31.6981 11.3284 31.8278 10.8344 30.388 10.1101C29.1756 9.50102 28.7691 9.69192 26.4448 8.77095C25.6171 8.44307 25.0225 8.16328 24.9322 8.30026C24.7777 8.53196 26.4025 9.43836 27.2637 11.4508C27.5173 12.0439 27.424 12.076 27.6849 12.6414C27.7228 12.723 28.4208 14.1933 29.8183 15.1959C31.0074 16.0484 32.6118 16.2276 35.8206 16.5846C37.5547 16.7785 38.0691 16.7275 38.9712 17.1544C39.8207 17.5581 40.2521 18.0244 41.3027 18.345C42.1013 18.5883 42.8095 18.6131 43.2875 18.5927" stroke="#CA8D60" stroke-width="0.291447" stroke-miterlimit="10"/>
<path d="M51.9467 68.1371C51.9161 68.1546 51.8826 68.1764 51.8462 68.2012C51.7412 68.2755 51.6159 68.3819 51.4993 68.5305C51.3682 68.6938 51.2924 68.8541 51.2487 68.9706C51.154 68.9517 51.0563 68.9298 50.9558 68.9051C49.8774 68.65 48.4435 68.124 47.2296 66.9363C46.2504 65.9775 46.3189 65.4733 45.5932 65.0507C43.8998 64.0656 42.2211 66.0445 38.5984 66.7877C34.5415 67.6198 33.3655 65.8128 30.9581 67.1841C28.8772 68.3702 29.6583 69.7779 27.3369 71.5499C24.7926 73.491 23.7448 71.8851 19.4489 74.0302C18.7421 74.3843 17.1348 75.244 14.9358 75.3694C14.7376 75.381 13.225 75.4597 13.1493 75.1216C13.0677 74.7573 14.8018 74.4163 16.5228 73.1864C17.3213 72.6166 18.4011 71.7525 20.0449 69.963C22.6096 67.1666 22.5324 66.4846 24.708 64.0597C25.3376 63.3574 25.9496 62.7409 26.515 62.2061C27.6138 61.1686 28.5435 60.4414 29.1235 59.9911C31.8762 57.8534 33.2533 56.7852 35.3736 56.1717C38.3026 55.3236 40.9883 55.7943 43.059 56.4326C43.8969 56.6905 44.6343 56.9761 45.2463 57.2137C48.2803 58.3896 49.3601 59.7186 49.6107 60.0407C50.4341 61.0972 51.3667 62.2936 51.2487 63.761C51.1875 64.5086 50.8363 65.5724 51.3973 66.1421C51.6188 66.368 51.833 66.4554 51.9919 66.7877C52.2105 67.2409 52.0924 67.7568 51.9467 68.1371Z" stroke="#CA8D60" stroke-width="0.291447" stroke-miterlimit="10"/>
<path d="M45.4937 46.8951C45.4849 46.8951 45.4776 46.8908 45.4689 46.8893C45.329 46.8587 45.1935 46.8252 45.0638 46.7902C44.3556 46.5978 43.7697 46.3414 43.2961 46.0762C42.6768 45.7293 42.244 45.3665 41.9715 45.1086C41.4251 44.5927 41.0535 44.0623 40.6746 43.3759C40.4589 42.9883 40.2418 42.5482 39.9868 42.0338C39.6137 41.2775 39.0439 40.1073 38.5485 38.4126C37.8796 36.1247 37.8534 34.6092 37.6523 33.3997C37.5575 32.8328 37.4249 32.3344 37.1699 31.855C37.1291 31.7792 36.963 31.479 36.6628 31.1191C36.3728 30.7723 35.8293 30.2171 34.9258 29.7595C37.5444 29.8061 39.3601 29.6997 40.5828 29.5817C40.8567 29.5555 41.1948 29.519 41.6232 29.6312C43.439 30.1049 44.2229 32.5399 44.5013 33.4011C44.972 34.8613 44.9807 35.9804 44.9967 37.9156C45.0113 39.7547 44.851 40.7747 44.867 41.77C44.8743 42.3034 44.9326 42.8309 45.0958 43.4721C45.2576 44.1045 45.4703 44.6554 45.686 45.1144C45.8244 45.4073 45.9614 45.6623 46.0882 45.878C46.1188 45.929 46.145 45.9727 46.1625 46.0018" stroke="#CA8D60" stroke-width="0.291447" stroke-miterlimit="10"/>
<path d="M37.6564 33.4754C36.9249 33.8047 35.2782 34.5494 31.74 36.1422C28.9086 37.4172 27.3421 38.108 25.0805 38.4111C23.8258 38.5801 22.9617 38.6865 21.8804 38.3732C19.9481 37.8151 19.7135 36.607 18.2708 36.6245C17.1036 36.6391 16.7597 37.4347 15.0707 37.4435C14.2926 37.4478 13.5537 37.2817 13.545 37.1083C13.5319 36.8373 15.3126 37.0136 16.6708 35.8055C17.5436 35.0288 17.3498 34.4736 18.01 34.1691C19.1685 33.6342 20.1113 35.1789 22.2141 35.4718C24.33 35.7662 26.1676 34.5887 26.9399 34.0947C28.8095 32.8969 28.8081 31.8695 30.4752 30.8582C32.0446 29.9066 33.7117 29.8061 34.8163 29.8542C35.2097 30.0218 36.001 30.421 36.6772 31.2677C37.381 32.1493 37.5879 33.0514 37.6564 33.4754Z" stroke="#CA8D60" stroke-width="0.291447" stroke-miterlimit="10"/>
<path d="M63.1658 46.3238C63.1658 46.3004 63.1702 46.2742 63.1731 46.2465C63.1921 46.0789 63.2402 45.8429 63.3655 45.5922C63.8056 44.7135 64.6347 44.8345 65.3736 44.1408C66.3878 43.1922 66.4024 41.4872 66.1925 40.4948C66.1401 40.2442 66.0672 39.9134 65.8574 39.5272C65.7102 39.2547 65.2803 38.5625 63.1411 37.5191C63.0099 37.455 63.0376 37.4696 62.9516 37.4273C62.0481 36.977 61.8048 36.6929 61.3181 36.6943C61.2685 36.6943 61.1826 36.6973 61.0762 36.7191C61.149 36.8386 61.2306 37.0018 61.2933 37.2058C61.3676 37.4477 61.3866 37.6619 61.388 37.8164V37.8208C61.4551 38.2944 61.5235 38.8438 61.5789 39.4529C61.6197 39.8944 61.6445 40.2704 61.662 40.607C61.6999 41.289 61.7101 41.8136 61.7654 42.4023C61.7902 42.6748 61.8252 42.9619 61.8762 43.2854C61.9738 43.8945 62.1458 44.7427 62.4853 45.7525C62.5203 45.8589 62.5567 45.9667 62.5961 46.076" stroke="#CA8D60" stroke-width="0.291447" stroke-miterlimit="10"/>
<path d="M53.6846 42.6501C53.2008 42.9285 52.6951 43.2389 52.0656 43.5959C51.3108 44.0229 50.349 44.5664 49.2153 45.1202C48.1515 45.6404 46.9362 46.1694 45.594 46.6197C45.4192 46.6779 45.2428 46.7348 45.0636 46.7902C44.166 47.0714 43.2144 47.3118 42.2191 47.4896C41.4205 47.6324 40.6948 47.7636 40.0143 47.8568C40.0128 47.8568 40.0114 47.8568 40.0099 47.8583C39.7272 47.8962 39.4518 47.9297 39.1837 47.953C39.1429 47.9574 39.1021 47.9618 39.0627 47.9647C37.7323 48.074 36.5519 47.9778 35.2987 47.4648C33.8691 46.8805 33.1813 46.0936 31.5536 46.0018C31.0435 45.9726 30.6515 46.0236 30.3062 46.1155C29.4741 46.3399 28.9131 46.8047 27.6088 46.9694C24.4087 47.373 21.35 45.3854 21.4578 44.9599C21.4943 44.82 21.8702 44.8724 23.02 44.7865C23.7967 44.7282 24.6987 44.5824 26.4678 44.291C31.4049 43.4779 31.1412 43.2913 32.3463 43.2986C34.5249 43.3117 34.6254 43.9136 36.7122 43.9923C37.9596 44.0403 39.0554 43.8684 40.3932 43.4618C40.4864 43.4356 40.5797 43.4064 40.6744 43.3758C40.6963 43.3686 40.7167 43.3627 40.7385 43.3554" stroke="#CA8D60" stroke-width="0.291447" stroke-miterlimit="10"/>
<path d="M54.0625 37.7042C54.1572 37.678 54.2534 37.6518 54.351 37.6255C55.103 37.4215 55.9263 37.2379 56.824 37.0893C58.1282 36.8707 59.5869 36.7235 61.2073 36.6987C61.254 36.8561 61.2991 37.0222 61.3414 37.1971C61.4682 37.7013 61.5775 38.2725 61.6474 38.9006C61.7159 39.5243 61.7334 40.0985 61.7217 40.6056H61.595C60.282 40.6027 58.3817 40.7426 56.2586 41.461C55.8462 41.6009 55.4862 41.7408 55.1554 41.8879C55.0767 41.9229 54.9995 41.9579 54.9223 41.9929" stroke="#CA8D60" stroke-width="0.291447" stroke-miterlimit="10"/>
<path d="M44.8672 41.7699C47.7525 40.5166 49.1864 39.5534 51.3227 38.6601C51.7322 38.4882 52.1869 38.3118 52.6794 38.1399" stroke="#CA8D60" stroke-width="0.291447" stroke-miterlimit="10"/>
<path d="M55.6859 28.697C55.6072 27.3535 55.3974 26.2416 55.1992 25.427C54.8014 23.792 54.574 22.8433 53.8381 21.8043C53.3048 21.0509 52.7467 20.589 52.8632 20.4272C52.9959 20.2422 53.7332 20.8178 55.071 21.0334C56.1741 21.2112 56.3883 20.9358 57.2481 21.1821C57.5614 21.2724 58.4707 21.5318 59.0288 22.2823C59.9265 23.4903 59.1775 25.4751 58.7723 26.5083C58.4984 27.2063 58.0131 28.1695 57.13 29.159" stroke="#CA8D60" stroke-width="0.291447" stroke-miterlimit="10"/>
<path d="M52.879 20.4012C52.879 20.4012 52.8746 20.3968 52.8717 20.3953C50.3813 21.0453 48.2814 21.5407 46.728 21.8919C40.4619 23.3054 39.0789 23.2763 37.9059 23.1247C34.9375 22.7386 32.5899 21.5363 32.5899 21.5363C30.353 20.391 29.9668 19.4583 28.1905 19.2776C27.8116 19.2383 26.57 19.4248 24.0884 19.7949C22.2275 20.0733 21.7189 20.1767 21.7072 20.3604C21.6868 20.6809 23.2067 21.0831 24.355 21.2668C27.1311 21.7112 27.9631 20.9214 29.3067 21.5771C30.6343 22.2256 30.3108 23.234 31.6806 24.633C33.1684 26.1543 35.022 26.4662 37.9496 26.9281C40.6382 27.3522 43.3603 27.7835 46.4045 26.6964C48.5568 25.927 49.676 24.7729 52.3558 24.5747C53.4881 24.4916 54.4353 24.6097 55.0677 24.7262" stroke="#CA8D60" stroke-width="0.291447" stroke-miterlimit="10"/>
<path d="M54.7453 68.8615C54.687 69.0364 54.62 69.2083 54.5427 69.3774C54.1595 68.965 53.7806 68.6881 53.4833 68.4739C53.3172 68.3529 53.154 68.2436 52.998 68.146C53.3755 68.1985 53.731 68.3048 53.9992 68.4185C54.2775 68.5351 54.5252 68.6866 54.7453 68.8615Z" fill="#CA8D60"/>
<path d="M39.0508 47.9546C39.093 47.9546 39.1382 47.9546 39.1848 47.9531C39.144 47.9575 39.1032 47.9619 39.0639 47.9648C39.0595 47.9604 39.0552 47.9575 39.0508 47.9546Z" fill="#CA8D60"/>
<path d="M41.0042 43.8989C41.0042 43.8989 40.994 43.9047 40.9897 43.9077C39.1317 45.0079 37.6803 45.1419 36.6879 45.053C35.0208 44.9029 34.5633 44.119 32.5392 44.1044C31.1358 44.0942 29.8258 44.4599 29.377 44.5882C28.0028 44.9802 27.8746 45.2731 26.8093 45.4246C25.2661 45.6447 24.0974 45.2323 24.0377 45.4436C23.9866 45.6287 24.8552 46.0134 24.912 46.0396C25.798 46.4476 26.6548 46.5074 27.1882 46.4957C27.3951 46.4913 27.5598 46.4768 27.6662 46.4666C29.6568 46.2611 30.8808 45.2979 32.3978 45.3314C33.7224 45.362 33.6219 46.1154 35.7218 46.5219C36.1619 46.6065 36.9575 46.7274 38.3754 46.6458C41.1631 46.4855 43.7817 45.6942 45.4692 45.0836C45.3293 45.6214 45.188 46.1591 45.0481 46.6953C43.8327 47.0014 42.6174 47.3074 41.4021 47.6134L38.575 48.0098C37.7561 47.9355 36.9386 47.8611 36.1196 47.7868C35.4988 47.5303 34.8795 47.2739 34.2587 47.0174C33.976 46.7609 33.4558 46.3587 32.6965 46.1241C31.6138 45.7904 30.6899 46.0017 30.3081 46.1125C30.0342 46.2334 29.6334 46.3995 29.1365 46.5627C29.1365 46.5627 28.3263 46.8775 27.6108 46.9679C24.4107 47.3715 21.352 45.3838 21.4598 44.9583C21.4962 44.8184 21.8722 44.8709 23.022 44.7849C23.7987 44.7266 24.7007 44.5809 26.4698 44.2895C31.4069 43.4763 31.1431 43.2898 32.3483 43.2971C34.5268 43.3102 34.6274 43.912 36.7141 43.9907C37.9615 44.0388 39.0574 43.8669 40.3951 43.4603C40.4811 43.4705 40.5656 43.4792 40.6516 43.4894C40.7696 43.625 40.8877 43.7619 41.0057 43.8975L41.0042 43.8989Z" fill="#CA8D60"/>
<path d="M52.7574 38.1895C52.9555 39.0464 53.1537 39.9572 53.3592 40.9393C53.3621 40.9554 53.3665 40.9714 53.3694 40.9874C53.4393 41.3124 53.5093 41.6446 53.5807 41.9842C53.6273 42.2086 53.6696 42.4141 53.706 42.6035C53.7075 42.6152 53.7104 42.6254 53.7118 42.6356C53.8153 43.3132 53.9173 43.9922 54.0208 44.6699C54.1548 45.856 54.2933 47.4721 54.8514 51.5349C54.8747 51.7054 54.8995 51.8817 54.9257 52.0624V52.0653C54.9694 52.3903 55.0175 52.7284 55.0685 53.0839C55.1487 53.6464 55.2347 54.2497 55.3294 54.8938C55.8088 58.177 55.9487 58.8998 56.1104 60.698C56.466 64.6486 56.2737 66.4774 56.4077 70.5576C56.4718 72.5031 56.6219 75.3097 57.0154 78.74C57.0183 78.7677 57.0212 78.7969 57.0241 78.8245C57.0271 78.8435 57.0285 78.8639 57.0314 78.8828C57.0358 78.8726 57.0445 78.8581 57.0562 78.8377C57.1261 78.7182 57.3272 78.4296 57.7105 78.3247C58.0282 78.2373 58.2948 78.3247 58.3896 78.3611C58.2162 77.8628 57.9699 77.0948 57.7469 76.1389C57.7469 76.1389 57.7222 76.0325 57.6828 75.8489C57.556 75.2805 57.4613 74.737 57.3899 74.2139C57.3753 74.1075 57.3608 73.9996 57.3476 73.8918L57.3389 73.8131C57.1159 71.9129 57.1946 70.2779 57.2952 68.7448C57.2966 68.7376 57.2966 68.7288 57.2981 68.7215C57.2981 68.6764 57.3025 68.6326 57.3054 68.5889C57.3185 68.398 57.3302 68.2071 57.3433 68.0191C57.3695 67.6199 57.3943 67.2293 57.4118 66.8373C57.4744 65.4923 57.3651 66.2136 56.5943 57.052C56.5841 56.9369 56.5753 56.8232 56.5651 56.711C56.5535 56.5726 56.5432 56.437 56.5316 56.3044C56.5272 56.249 56.5228 56.1937 56.5185 56.1398C56.5126 56.0654 56.5054 55.9926 56.501 55.9212C56.4981 55.8979 56.4966 55.876 56.4952 55.8527C56.4631 55.4753 56.434 55.1197 56.4077 54.7831C56.348 54.0457 56.2984 53.4031 56.2562 52.8391C56.2489 52.7604 56.2431 52.6847 56.2387 52.6089C56.2343 52.5652 56.2314 52.5214 56.2285 52.4792C56.2212 52.3786 56.2139 52.281 56.2066 52.1863C56.1979 52.077 56.1906 51.9706 56.1833 51.8686C56.1804 51.8307 56.1775 51.7943 56.1746 51.7579C56.1702 51.6966 56.1658 51.6369 56.1615 51.5786C56.1556 51.4839 56.1483 51.3921 56.1425 51.3046C56.1411 51.2842 56.1396 51.2638 56.1381 51.2449C56.0492 49.9902 56.0084 49.2762 55.9574 48.619C55.9531 48.5738 55.9502 48.5301 55.9458 48.4849C55.9414 48.4222 55.9356 48.3596 55.9298 48.2969C55.921 48.1891 55.9108 48.0812 55.9006 47.969C55.8992 47.9545 55.8977 47.9399 55.8962 47.9239C55.8933 47.8831 55.889 47.8423 55.8846 47.8015C55.8656 47.6004 55.8423 47.3876 55.8161 47.1515C55.8117 47.118 55.8088 47.0845 55.8044 47.0495C55.7855 46.8761 55.7636 46.6896 55.7389 46.4856C55.6281 45.5646 55.5261 44.7179 55.427 43.9296C55.3352 43.2024 55.2463 42.5248 55.156 41.8895L55.1516 41.8632C55.054 41.1681 54.9519 40.5211 54.8427 39.9091C54.8106 39.7313 54.7771 39.555 54.7436 39.383C54.627 38.771 54.4973 38.191 54.3516 37.627C54.1884 36.9917 54.0018 36.3782 53.7847 35.7647C53.6331 35.3348 53.467 34.9049 53.282 34.4677C53.279 34.4619 53.2761 34.4561 53.2747 34.4503C53.2747 34.4488 53.2732 34.4488 53.2732 34.4488C52.4848 32.5821 51.6673 30.9587 51.0262 29.7667C50.9737 29.6691 50.9227 29.5758 50.8731 29.484C50.7726 29.3004 50.6779 29.1299 50.589 28.9711C50.1212 28.1375 49.8225 27.6595 49.8225 27.6595C49.2425 26.7327 48.7237 25.9852 48.2734 25.2507" stroke="#CA8D60" stroke-width="0.291447" stroke-miterlimit="10"/>
<path d="M46.0365 22.0156C46.0074 21.9005 45.9797 21.7854 45.952 21.6673C45.9301 21.5711 45.9083 21.4764 45.8879 21.3817C45.5236 19.7088 45.4405 18.2749 45.4303 17.2767C45.1709 16.9881 44.588 16.2566 44.5006 15.1943C44.4933 15.1098 44.47 14.7644 44.5166 14.3389C44.5166 14.3389 44.5171 14.3379 44.5181 14.336C44.5938 13.6584 44.8518 12.7796 45.6532 12.4401C45.7086 12.4168 45.7655 12.3964 45.8237 12.3789C45.9097 12.3527 46.0001 12.3337 46.0904 12.3206C46.2172 12.3031 46.3469 12.2973 46.4751 12.3046C46.5101 12.306 46.5465 12.309 46.5815 12.3133C46.6107 12.3162 46.6398 12.3192 46.6689 12.3235C46.7127 12.3294 46.7564 12.3366 46.7972 12.3454C46.822 12.3512 46.8482 12.357 46.873 12.3629C46.9225 12.3745 46.9691 12.3876 47.0158 12.4022C47.0405 12.411 47.0653 12.4182 47.0901 12.427C47.1367 12.443 47.1819 12.462 47.2256 12.4824C47.2504 12.4926 47.2737 12.5042 47.297 12.5159C47.3305 12.5319 47.364 12.5494 47.3961 12.5669C47.4267 12.5844 47.4573 12.6033 47.4879 12.6223C47.6759 12.7403 47.8376 12.8918 47.9586 13.0725C48.4468 13.7982 48.0897 14.7149 47.7735 15.528C47.4209 16.4329 46.8904 17.0464 46.5451 17.3889C46.4562 18.1729 46.4023 19.2192 46.548 20.4185C46.5801 20.6895 46.6223 20.9693 46.6777 21.2549C46.7156 21.4575 46.7607 21.663 46.8118 21.8699" stroke="#CA8D60" stroke-width="0.291447" stroke-miterlimit="10"/>
<path d="M52.7562 38.1896C52.7504 38.1663 52.746 38.143 52.7402 38.1197C52.5245 37.1856 52.306 36.3142 52.0684 35.485C52.0699 35.4835 52.0684 35.4821 52.0684 35.4821C51.9824 35.179 51.8936 34.8832 51.8003 34.5903C51.3719 33.2336 50.872 31.9702 50.2163 30.6863C50.1551 30.5654 50.091 30.4444 50.0254 30.3235C49.8461 29.9839 49.6538 29.6415 49.4498 29.2961C48.829 28.2498 48.0333 27.068 47.3105 25.551" stroke="#CA8D60" stroke-width="0.291447" stroke-miterlimit="10"/>
<path d="M52.8997 71.314C52.9128 71.1188 52.3372 71.0503 52.3052 70.7064C52.2906 70.5534 52.381 70.5271 52.3795 70.3581C52.3766 70.0856 52.1347 69.969 51.8709 69.6266C51.6917 69.3963 51.444 69.0743 51.4862 68.7595C51.5241 68.4783 51.782 68.2801 51.9933 68.1635C51.9438 68.1737 51.8942 68.1868 51.8461 68.2014C51.8826 68.1766 51.9161 68.1547 51.9467 68.1373C52.0924 67.7569 52.2105 67.2411 51.9919 66.7879C51.833 66.4556 51.6188 66.3682 51.3973 66.1423C50.8363 65.5725 51.1875 64.5087 51.2487 63.7612C51.3667 62.2937 50.4341 61.0974 49.6107 60.0409C49.5918 60.0175 49.5685 59.9869 49.5408 59.952C49.0541 59.356 48.0602 58.3257 45.2463 57.2138C44.3807 56.8714 43.1931 56.4619 41.73 56.134C41.6994 56.1311 41.6309 56.1194 41.5683 56.0655C41.5377 56.0393 41.5187 56.0131 41.5056 55.9912C40.8047 55.8047 39.7045 55.5803 38.3623 55.6007C30.8751 55.7158 25.2283 63.3371 24.708 64.0599C24.4953 64.3557 23.2887 65.9427 21.6712 68.0455C21.2617 68.5773 20.7546 69.1894 20.0449 69.9632C18.4011 71.7527 17.3213 72.6168 16.5228 73.1866C14.8018 74.4165 13.0677 74.7575 13.1493 75.1218C13.225 75.4599 14.7376 75.3812 14.9358 75.3695C17.1348 75.2442 18.7421 74.3844 19.4489 74.0303C23.7448 71.8853 24.7926 73.4911 27.3369 71.5501C29.6583 69.7781 28.8772 68.3704 30.9581 67.1842C33.3655 65.813 34.5415 67.6199 38.5984 66.7879C42.2211 66.0447 43.8998 64.0657 45.5932 65.0508C46.3189 65.4734 46.2504 65.9776 47.2296 66.9365C48.4435 68.1241 49.8774 68.6502 50.9558 68.9052C50.4997 69.7592 50.829 71.1086 51.5081 71.8896C51.6844 71.843 51.9423 71.7687 52.2513 71.6594C52.8487 71.4481 52.8968 71.368 52.8997 71.314ZM48.3706 63.1535C48.2176 63.2759 47.6595 62.8315 47.1801 62.4089C44.7115 60.239 41.1092 59.8252 38.8826 60.14C38.2429 60.2303 37.6876 60.4227 36.5758 60.8103C33.0158 62.0475 29.8302 63.155 27.7945 65.8698C26.7409 67.276 26.2877 68.369 25.0039 68.9577C24.4545 69.2098 23.6618 69.0713 22.8836 69.6644C22.4085 70.0258 22.3124 70.3275 21.9539 70.7807C20.8245 72.2073 18.9724 72.7742 18.8281 72.5673C18.6984 72.3807 20.0551 71.7264 21.234 69.8393C21.6245 69.2127 21.8796 68.6385 22.5863 67.8065C22.7743 67.585 23.0963 67.2003 23.5918 66.7675C24.4545 66.0126 25.0286 65.8567 26.158 64.4577C27.7726 62.4555 27.4273 61.7473 28.7256 60.9604C30.196 60.07 30.5734 60.0336 31.627 59.2117C32.4372 58.5807 32.3585 58.3709 32.9167 58.145C33.4748 57.9191 34.6012 58.0459 35.0005 58.0707C36.1036 58.1377 36.092 57.6408 37.5244 57.5373C37.8042 57.5169 38.1496 57.5111 39.534 57.7049C41.4444 57.9716 42.7151 58.2441 42.7151 58.2441C45.2084 58.7323 46.4733 59.9228 47.0125 60.5319C47.8941 61.5287 48.598 62.9728 48.3706 63.155V63.1535Z" fill="#CA8D60"/>
<path d="M63.3666 45.5924C63.2413 45.843 63.1932 46.0791 63.1742 46.2467C63.5007 46.5585 63.7426 46.9403 63.8314 47.3571C63.6158 47.3614 63.3914 47.3396 63.1611 47.2857C62.8347 47.2084 61.6879 46.49 61.4634 46.2365C61.2419 45.9873 61.0554 45.7104 60.9141 45.4175C61.0408 45.4029 61.1691 45.4 61.3017 45.4073C61.701 45.4306 62.1119 45.5545 62.4864 45.7526C62.2635 45.0896 62.1134 44.4965 62.0084 43.9938C62.0026 43.9661 61.9268 43.6018 61.8773 43.2855C61.7942 42.7464 61.7039 41.7977 61.8496 40.4439C61.9268 41.9157 62.6059 42.8688 63.2544 42.895C63.5983 42.9096 63.9976 42.6662 64.1666 42.3179C64.4916 41.6505 63.607 41.2498 63.5327 39.7882C63.489 38.9401 63.6172 38.5933 63.2923 38.0584C63.0402 37.6431 62.6555 37.4114 62.3713 37.2817C62.7079 37.3663 62.9731 37.4566 63.1422 37.5193C64.7641 38.1167 65.5685 39.0537 65.8002 39.4253C65.8235 39.4632 65.8424 39.4982 65.8585 39.5273C66.0683 39.9135 66.1412 40.2443 66.1936 40.4949C66.4035 41.4873 66.3889 43.1923 65.3747 44.1409C64.6358 44.8346 63.8067 44.7136 63.3666 45.5924Z" fill="#CA8D60"/>
<path d="M36.7816 31.2487C35.8912 30.0844 34.7036 29.7084 34.3028 29.6006C33.7228 29.6079 32.8019 29.6953 31.7774 30.1325C30.3712 30.7329 29.526 31.6713 29.1355 32.1697C29.8553 31.4717 30.5665 31.1205 31.0138 30.9412C31.6754 30.6775 32.3137 30.4225 33.0408 30.6527C33.2157 30.7081 34.0055 30.8888 34.2314 31.6393C34.383 32.142 34.4923 32.7934 34.176 33.2014C33.6602 33.8659 32.5031 33.4069 31.1989 33.4244C27.3678 33.4783 25.3787 37.6168 23.2919 36.7177C22.6391 36.4365 22.0504 35.6933 21.3203 35.9177C20.8613 36.0591 20.7432 36.4598 20.2973 36.4569C19.7654 36.454 19.7042 35.8813 19.0514 35.7691C18.9333 35.7487 18.5297 35.8303 17.7238 35.992C17.087 36.1203 16.9078 36.1611 16.8684 36.0911C16.8014 35.9731 17.2706 35.5884 17.6189 35.3042C18.1989 34.8306 18.4889 34.5931 18.8182 34.5319C19.3997 34.4255 19.9097 34.7155 20.1574 34.886C19.8004 34.6528 19.4448 34.4211 19.0878 34.188C18.8692 34.0903 18.5559 33.9971 18.2324 34.086C17.6728 34.2404 17.7107 34.7679 17.004 35.4528C16.2681 36.1669 15.3005 36.4933 15.1314 36.5501C14.9493 36.6113 14.7671 36.6755 14.5864 36.7367C13.7674 37.0121 13.645 37.0398 13.6465 37.0908C13.6509 37.2205 14.5063 37.3968 15.4287 37.3079C16.048 37.2482 16.6295 37.0762 17.3289 36.8678C18.0619 36.6507 18.2164 36.5545 18.5574 36.607C18.894 36.6594 19.1782 36.8197 19.7392 37.1374C19.9913 37.2802 20.0875 37.3487 20.4022 37.544C20.6879 37.7218 21.1017 37.9695 21.6219 38.2537C21.7327 38.2813 21.842 38.309 21.9527 38.3367C22.5327 38.4169 23.238 38.4635 24.0366 38.411C24.5452 38.3775 25.0071 38.3076 25.4137 38.2245C26.1146 38.1036 27.1536 37.8879 28.3719 37.4799C29.6834 37.0412 30.6073 36.5822 31.0503 36.3636C32.3924 35.7049 34.4412 34.7548 37.6734 33.4054C37.6137 32.9741 37.433 32.1027 36.7801 31.2473L36.7816 31.2487Z" fill="#CA8D60"/>
<path d="M54.5048 22.9817C53.9569 21.7518 53.1889 20.9241 52.6585 20.4432L51.8686 20.7011C51.2828 20.9387 50.4712 21.3525 49.7105 22.0899C49.3156 22.4731 49.2879 22.6203 49.0154 22.9249C48.74 23.2309 47.1283 24.573 44.7996 24.4958C43.5886 24.455 43.0597 24.0688 41.6738 24.1606C41.0618 24.2014 40.5707 24.3165 40.4454 24.3471C39.7138 24.5235 39.2242 24.7639 39.0435 24.8426C37.1826 25.6557 34.1487 24.1315 33.8776 23.993C33.0368 23.5602 32.486 23.1099 31.4965 22.2997C29.4855 20.653 29.6473 20.1998 28.7991 19.9929C27.3536 19.6417 26.4268 20.8469 24.6868 20.2844C24.2846 20.1547 23.9801 19.9754 23.7935 19.853C23.113 19.9769 22.4325 20.0993 21.752 20.2232C21.7738 20.3456 21.7971 20.468 21.819 20.5904C22.4675 20.8002 23.4496 21.0786 24.6723 21.2563C27.4876 21.6673 27.8563 21.0101 29.0629 21.5565C30.9763 22.4236 30.7256 24.3807 33.0353 25.698C33.847 26.1599 34.6223 26.345 35.1512 26.4266C36.0052 26.6612 37.0937 26.8142 38.7331 27.0445C41.0312 27.3665 42.0629 27.3505 42.3981 27.3418C43.5114 27.3141 44.4353 27.1815 45.0896 27.0605C45.5224 26.9133 46.1869 26.6773 46.984 26.3465C47.8059 26.0055 48.0973 25.8423 48.686 25.596C49.0897 25.427 50.2059 24.9359 51.4154 24.7231C52.9149 24.4594 54.1871 24.5686 55.0352 24.7115C54.9478 24.2218 54.7904 23.6244 54.5048 22.9817Z" fill="#CA8D60"/>
<path d="M29.6746 9.83753C30.1992 10.1042 30.7223 10.3709 31.2469 10.6376C32.5468 11.8573 32.8353 12.1633 32.8193 12.1822C32.8062 12.1983 32.6007 12.0088 32.2757 11.7946C31.907 11.5527 31.4422 11.286 30.8855 11.0485C30.0899 10.709 29.8523 10.7483 28.9503 10.3971C27.4698 9.8215 26.6668 9.157 26.5881 9.26192C26.5124 9.36247 27.3036 9.88416 28.1692 10.9917C29.1252 12.2143 28.9926 12.6427 29.8057 13.2795C30.0607 13.4792 30.7675 14.0315 31.722 14.0606C32.4856 14.0839 32.5934 13.7488 33.341 13.7998C33.9632 13.8435 34.4062 14.1116 35.2193 14.6187C36.2773 15.2774 36.0835 15.3911 36.7261 15.716C37.7928 16.2552 38.8653 16.2129 39.6654 16.1809C40.3969 16.1517 40.7627 16.1372 40.8006 16.0133C40.8822 15.7379 39.626 14.9437 33.6193 12.6456C34.4426 13.1017 35.1363 13.2664 35.6099 13.3334C36.235 13.4223 36.5556 13.3538 37.2464 13.4631C37.9954 13.5812 38.5768 13.8143 38.9397 13.9834C39.6931 14.2632 40.9142 14.8315 42.0654 15.9739C42.8145 16.7186 43.3012 17.4764 43.6101 18.0578C43.511 18.237 43.4119 18.4177 43.3128 18.597C43.0214 18.6013 42.6002 18.5882 42.1033 18.5037C41.0818 18.3288 40.3095 17.9456 39.7965 17.6847C38.9222 17.2417 38.9076 17.0873 38.3087 16.8847C37.5305 16.621 36.8806 16.653 36.5789 16.6618C36.1214 16.6749 33.392 16.7521 31.2396 15.8617C30.5285 15.5674 28.7478 14.83 27.9652 13.1644C27.5645 12.3105 27.7612 11.9243 27.1652 11.0806C26.7149 10.4437 26.2413 10.1523 25.5287 9.12786C25.3116 8.81455 25.1484 8.54496 25.0449 8.36572C26.5896 8.85535 28.1328 9.34499 29.6775 9.83607L29.6746 9.83753Z" fill="#CA8D60"/>
<path d="M49.5604 8.36709C49.1728 7.64575 48.9717 7.66761 48.3509 6.73061C47.8686 6.00199 47.8861 5.83295 47.532 5.5211C47.344 5.35644 46.9738 5.08248 46.2292 4.90761C45.2587 4.67882 44.4543 4.80997 43.0291 5.07519C41.8167 5.2996 41.7992 5.41181 41.1828 5.41473C40.4542 5.4191 40.1132 5.26463 39.3321 5.29815C39.3292 5.29815 39.3263 5.29815 39.3234 5.29815C38.7201 5.2486 38.0002 5.14368 37.206 4.92509C36.6974 4.7852 35.8449 4.54621 34.8613 3.99538C34.207 3.62815 33.2015 2.95783 32.2383 1.80078C32.2499 1.97711 32.2791 2.23504 32.3592 2.53523C32.5414 3.21721 32.8387 3.56258 33.6154 4.63802C34.4897 5.84752 34.4824 5.91893 34.7506 6.09817C35.1921 6.39399 35.4355 6.34881 36.4803 6.58197C36.6246 6.61403 37.9128 6.90548 39.2053 7.41842C40.53 7.94449 40.3551 8.10478 41.1405 8.29277C41.8692 8.46763 42.538 8.43412 43.8466 8.35834C44.5825 8.31608 45.1887 8.25196 45.604 8.1995C46.0747 8.46035 46.544 8.71974 47.0147 8.98058C47.0015 9.0549 46.9768 9.23997 47.0307 9.46147C46.5454 10.2323 46.442 10.8473 46.4507 11.2874C46.4507 11.2874 46.4522 11.3704 46.544 12.4779C46.544 12.4779 47.4912 12.5333 47.4926 12.5333C47.6835 12.2623 47.9837 11.8732 48.4049 11.455C49.3287 10.5355 49.8956 10.416 50.0238 9.81849C50.1127 9.40027 49.9233 9.04761 49.559 8.36709H49.5604ZM48.8347 9.11173C48.7284 9.82724 47.771 10.3125 47.6063 10.1726C47.4635 10.0502 48.0143 9.52267 47.9036 8.78677C47.8147 8.19513 47.3498 7.80896 47.2157 7.69821C46.2248 6.87925 44.6379 7.05849 43.4211 7.19547C42.5234 7.29747 41.8167 7.48837 41.2265 7.05849C40.9832 6.88216 40.938 6.72915 40.6305 6.57469C40.0928 6.3051 39.6629 6.48288 39.0494 6.48725C38.0439 6.49599 37.0763 6.03988 37.0778 5.81692C37.0778 5.73386 37.3182 5.62894 38.2231 5.50945C38.4126 5.4905 38.6326 5.48176 38.8774 5.49633C39.5842 5.53713 39.9762 5.7426 40.4207 5.87958C40.6582 5.95245 40.8272 5.96702 41.1493 6.01074C41.7511 6.09234 42.0513 6.07194 42.4637 6.09671C43.51 6.15792 43.4765 6.40565 44.1468 6.39399C45.1392 6.3765 45.1844 5.83295 45.9888 5.90144C46.9156 5.98013 47.6048 6.76704 47.7841 6.97105C47.9793 7.19401 48.093 7.38637 48.2766 7.69676C48.6861 8.38894 48.8916 8.73431 48.8347 9.11028V9.11173Z" fill="#CA8D60"/>
<path d="M38.0469 35.4908C38.8294 38.9138 40.3391 40.8593 41.3213 41.872C41.5705 42.1285 42.8937 43.4662 43.3615 43.1748C43.8321 42.8819 43.239 41.0662 43.07 38.9707C42.9214 37.1375 43.2012 37.222 43.0321 36.1436C42.9345 35.5185 42.5658 33.1636 40.5082 31.4674C38.4273 29.7522 36.0141 29.863 35.4355 29.9052C37.5515 29.8076 39.6688 29.7114 41.7847 29.6138C42.235 29.9591 42.6853 30.3045 43.137 30.6499C43.6558 31.3741 44.3393 32.5195 44.6992 34.0481C44.9236 35.0041 44.9353 35.8231 44.9469 37.4216C44.9702 40.3507 44.6642 40.1583 44.8478 41.7132C45.0504 43.4269 45.6318 45.4321 46.104 45.8736C46.1185 45.8867 46.1768 45.945 46.187 46.0295C46.2205 46.2904 45.7717 46.56 45.5415 46.662C45.0154 46.8951 44.4806 46.7596 44.227 46.6751C43.3891 46.1957 42.458 45.5341 41.5734 44.616C38.3573 41.2833 38.0731 36.9918 38.0455 35.4937L38.0469 35.4908Z" fill="#CA8D60"/>
<path d="M53.5796 41.9843C53.6262 42.2087 53.6685 42.4142 53.7049 42.6036C53.1118 42.9359 52.5916 43.2623 52.1938 43.5231C52.1894 43.526 52.1865 43.5275 52.1836 43.529C51.7639 43.8058 51.4826 44.0084 51.4025 44.0667C51.1096 44.1949 50.8152 44.3217 50.5223 44.4499C49.0913 45.0722 47.6618 45.6959 46.2308 46.3181C44.7721 45.9509 44.4529 45.7017 44.4631 45.537C44.4996 44.9731 48.4283 44.9381 49.766 43.3789C49.8432 43.2885 50.1026 43.032 50.4538 42.6721C50.9843 42.1271 51.5234 41.9129 52.0349 41.6681C52.5071 41.4422 52.953 41.1901 53.3581 40.9395C53.361 40.9555 53.3654 40.9715 53.3683 40.9875C53.4382 41.3125 53.5082 41.6448 53.5796 41.9843Z" fill="#CA8D60"/>
<path d="M61.7188 40.6903C61.2991 40.6786 60.7206 40.6757 60.0342 40.7179C60.0342 40.7179 59.3566 40.7602 58.5377 40.8753C58.1865 40.9234 57.809 40.9861 57.4491 41.0633C56.6928 41.2251 55.9015 41.5209 55.151 41.8633C54.9077 41.977 54.6672 42.0936 54.4341 42.2131C54.3277 41.7599 54.1951 41.314 54.0639 40.868C54.029 40.75 53.9954 40.6422 53.9648 40.5445C54.3073 40.3128 54.6031 40.0942 54.8421 39.9092C55.1204 39.695 55.3215 39.5288 55.4221 39.4443C56.26 38.739 56.7788 38.1765 57.1795 37.8443C57.6313 37.4698 58.373 37.034 59.6073 36.8621C60.1435 36.7863 60.6798 36.7105 61.216 36.6348C61.216 36.6435 61.235 36.7921 61.2365 36.8009C61.3953 38.0978 61.557 39.3933 61.7188 40.6903Z" fill="#CA8D60"/>
<path d="M55.123 24.9607C55.1741 25.0963 55.6243 26.2344 56.5366 26.3932C57.6616 26.5899 58.8317 25.1837 58.8623 23.9188C58.8929 22.635 57.7534 21.3497 56.0907 21.1093C56.3748 21.0466 56.9067 20.9737 57.5042 21.1646C57.5042 21.1646 58.3902 21.4473 59.0299 22.3931C59.8736 23.6376 59.215 26.3218 57.2258 28.9783C56.7056 28.8107 56.1839 28.6432 55.6637 28.4756C55.4844 27.304 55.3037 26.1309 55.1245 24.9593L55.123 24.9607Z" fill="#CA8D60"/>
<path d="M47.7754 25.5626C47.9911 25.7579 48.3029 26.0581 48.6439 26.4559C49.4468 27.3943 49.8141 28.1871 50.4057 29.3572C50.7511 30.0421 51.2757 31.0549 51.9679 32.3096C51.8527 31.8389 51.7362 31.3668 51.621 30.8961C51.1664 30.0698 50.7117 29.2421 50.2571 28.4159C49.6203 27.2996 48.9834 26.1834 48.3466 25.0671L47.7768 25.5626H47.7754Z" fill="#CA8D60"/>
<path d="M47.6088 23.4451C47.5243 23.33 47.2547 23.3737 46.7534 23.5384C46.376 23.6623 45.4375 23.9974 45.4696 24.0965C45.4885 24.1563 45.828 24.0105 46.7898 23.8823C47.1978 23.8284 47.5651 23.7978 47.6263 23.604C47.6263 23.5996 47.6554 23.5092 47.6073 23.4451H47.6088Z" fill="#CA8D60"/>
<path d="M38.6972 24.5891C38.6972 24.627 38.1216 24.7232 37.441 24.6721C36.4574 24.5978 35.7434 24.2539 35.3295 24.0485C34.7014 23.7381 34.1972 23.3694 34.2133 23.3417C34.2249 23.3227 34.4989 23.4728 35.0643 23.7366C35.5612 23.9683 36.0129 24.1621 36.1805 24.2291C37.4512 24.7392 38.6957 24.5308 38.6972 24.5876V24.5891Z" fill="#CA8D60"/>
<path d="M45.7666 13.6132C45.6893 13.5345 45.4708 13.5869 45.376 13.7254C45.3017 13.8332 45.2915 14.011 45.376 14.0693C45.4664 14.1319 45.6369 14.0416 45.7199 13.9294C45.787 13.8376 45.8321 13.6816 45.7666 13.6132Z" fill="#CA8D60"/>
<path d="M46.9287 14.8969C46.9826 14.9435 46.936 15.0732 46.9287 15.0921C46.8806 15.2189 46.7451 15.3413 46.6591 15.3064C46.5921 15.2787 46.5644 15.1548 46.5936 15.0645C46.6446 14.9114 46.8617 14.84 46.9287 14.8969Z" fill="#CA8D60"/>
<path d="M46.2387 14.0969C46.2197 13.9905 46.3188 13.8535 46.4252 13.836C46.4981 13.8244 46.5097 13.8783 46.7327 13.9759C46.8245 14.0167 46.8609 14.024 46.8726 14.059C46.8915 14.1217 46.807 14.2149 46.7239 14.2543C46.552 14.3373 46.2678 14.2514 46.2401 14.0954L46.2387 14.0969Z" fill="#CA8D60"/>
<path d="M44.8258 14.8038C44.7253 14.7062 44.8404 14.4045 44.9468 14.3943C45.0065 14.3885 45.0663 14.4774 45.0867 14.543C45.1173 14.6406 45.091 14.779 44.9934 14.8213C44.9424 14.8446 44.8681 14.8431 44.8258 14.8023V14.8038Z" fill="#CA8D60"/>
<path d="M46.2217 15.9011C46.226 15.7976 46.2727 15.6446 46.3426 15.6402C46.3922 15.6373 46.4475 15.7116 46.4548 15.7801C46.4679 15.9142 46.2916 16.0308 46.2406 16.0031C46.2173 15.99 46.2202 15.9477 46.2217 15.9011Z" fill="#CA8D60"/>
<path d="M55.7167 29.4126C55.6657 29.2945 55.278 29.2814 55.0799 29.465C55.0085 29.5321 54.9458 29.6384 54.9735 29.6778C54.9939 29.7069 55.0507 29.6763 55.1644 29.6778C55.3174 29.6807 55.3509 29.739 55.4398 29.7302C55.5972 29.7157 55.756 29.5073 55.7152 29.4126H55.7167Z" fill="#CA8D60"/>
<path d="M54.0525 29.2538C54.1151 29.3237 53.9534 29.6385 53.7129 29.7201C53.6896 29.7274 53.5818 29.7638 53.5439 29.7201C53.4987 29.6691 53.5672 29.5336 53.6284 29.4549C53.7567 29.2917 53.9986 29.194 54.0525 29.2538Z" fill="#CA8D60"/>
<path d="M54.3635 29.4839C54.2862 29.6019 54.397 29.8161 54.5223 29.8234C54.6039 29.8278 54.6957 29.7447 54.7132 29.6427C54.7263 29.5626 54.6957 29.462 54.6068 29.4197C54.515 29.376 54.4072 29.4168 54.3635 29.4839Z" fill="#CA8D60"/>
<path d="M53.3838 29.9094C53.3167 29.9006 53.2308 30.1877 53.2133 30.2445C53.2031 30.2766 53.1113 30.587 53.1841 30.6249C53.2278 30.6467 53.3167 30.568 53.3663 30.5039C53.5324 30.2824 53.4552 29.9196 53.3838 29.9094Z" fill="#CA8D60"/>
<path d="M29.0975 11.213C29.0553 11.2451 29.3671 11.9125 30.0025 12.4531C30.3857 12.7795 30.7544 12.9471 31.0561 13.0856C31.5632 13.3173 32.1446 13.4936 32.1723 13.4324C32.2 13.3712 31.6637 13.0783 31.5399 13.0112C31.0765 12.7577 30.7734 12.6542 30.5723 12.5653C29.5755 12.1238 29.1471 11.1751 29.0961 11.213H29.0975Z" fill="#CA8D60"/>
<path d="M38.653 15.5426C38.688 15.4639 38.1212 15.1214 37.6403 14.881C37.5324 14.8271 37.4188 14.779 37.1914 14.6828C36.7514 14.4977 35.9572 14.1786 35.9397 14.215C35.9309 14.2354 36.1816 14.3564 36.6493 14.6099C37.3692 15.0005 37.5557 15.2599 38.1139 15.4449C38.2829 15.5018 38.6254 15.5994 38.6516 15.5426H38.653Z" fill="#CA8D60"/>
<path d="M58.1647 22.747C58.0729 22.8009 58.0729 23.072 58.2201 23.1842C58.2944 23.241 58.4197 23.2672 58.4809 23.2119C58.5625 23.139 58.5101 22.9379 58.3979 22.8301C58.3425 22.7762 58.2303 22.7077 58.1647 22.747Z" fill="#CA8D60"/>
<path d="M58.4635 23.856C58.4767 24.248 58.4825 24.4448 58.5422 24.4579C58.6049 24.4724 58.72 24.3063 58.7477 24.1402C58.8031 23.824 58.5466 23.515 58.4781 23.5384C58.4519 23.5471 58.4548 23.6506 58.4621 23.856H58.4635Z" fill="#CA8D60"/>
<path d="M53.6256 21.1018C53.6052 21.1324 54.0788 21.3379 54.4985 21.9397C54.8949 22.5095 54.9736 23.0501 55.0464 23.0341C55.1033 23.021 55.1251 22.6713 55.0129 22.3332C54.7215 21.4574 53.6577 21.0566 53.6271 21.1018H53.6256Z" fill="#CA8D60"/>
<path d="M60.1457 46.7944C60.0087 46.8323 59.9461 47.0334 60.0087 47.1165C60.0495 47.1704 60.1355 47.1675 60.1705 47.166C60.2754 47.1631 60.4211 47.1019 60.4313 47.0043C60.443 46.895 60.2827 46.7551 60.1457 46.793V46.7944Z" fill="#CA8D60"/>
<path d="M60.5934 47.7053C60.6225 47.7198 60.5366 47.8539 60.5322 48.1162C60.5293 48.3027 60.5701 48.4018 60.5424 48.4135C60.506 48.428 60.3734 48.2882 60.3588 48.122C60.3384 47.8903 60.5541 47.6849 60.5934 47.7053Z" fill="#CA8D60"/>
<path d="M59.4138 47.5143C59.3847 47.4327 59.5348 47.2564 59.6747 47.2782C59.7461 47.2899 59.8277 47.3555 59.8233 47.4269C59.8189 47.4983 59.733 47.5405 59.7111 47.5507C59.6003 47.6046 59.4386 47.5813 59.4138 47.5128V47.5143Z" fill="#CA8D60"/>
<path d="M60.4613 48.7295C60.5196 48.747 60.5269 48.9015 60.5109 49.002C60.4701 49.2527 60.2326 49.4494 60.1641 49.4115C60.116 49.3853 60.148 49.2454 60.1641 49.1754C60.2165 48.9408 60.3812 48.7033 60.4613 48.7295Z" fill="#CA8D60"/>
<path d="M47.4148 48.3828C47.4629 48.1525 47.221 47.8829 47.0928 47.9121C47.0082 47.931 46.966 48.0797 46.9689 48.1846C46.9762 48.393 47.1685 48.5868 47.2909 48.5562C47.3813 48.5329 47.4133 48.3915 47.4148 48.3828Z" fill="#CA8D60"/>
<path d="M47.3042 47.3773C47.2518 47.2957 47.3887 47.0509 47.5898 47.0057C47.7254 46.9751 47.8959 47.0319 47.9119 47.1179C47.9308 47.2228 47.7093 47.3307 47.6889 47.3409C47.5622 47.4035 47.3523 47.4516 47.3042 47.3787V47.3773Z" fill="#CA8D60"/>
<path d="M47.751 48.4192C47.6767 48.4556 47.6621 48.6727 47.7641 48.766C47.8224 48.8214 47.9142 48.8155 48.0993 48.8039C48.2377 48.7951 48.3266 48.7893 48.3353 48.7543C48.3441 48.715 48.2435 48.6829 47.9506 48.5066C47.8238 48.4308 47.7874 48.4031 47.7524 48.4192H47.751Z" fill="#CA8D60"/>
<path d="M48.6432 47.0422C48.6593 47.0174 48.7686 47.0947 49.127 47.2156C49.3631 47.2958 49.4637 47.3118 49.4622 47.3395C49.4593 47.3759 49.2698 47.4167 49.0906 47.3774C48.8152 47.3162 48.6199 47.0787 48.6447 47.0422H48.6432Z" fill="#CA8D60"/>
<path d="M52.538 69.3102C52.5001 69.2927 52.417 69.3656 52.3791 69.4501C52.3427 69.5346 52.3369 69.6658 52.417 69.7285C52.4462 69.7518 52.503 69.778 52.538 69.7561C52.5729 69.7343 52.5598 69.6833 52.5569 69.4866C52.554 69.3525 52.5598 69.3204 52.538 69.3102Z" fill="#CA8D60"/>
<path d="M52.5547 70.0928C52.5241 70.103 52.5882 70.2283 52.546 70.4469C52.5241 70.5591 52.4906 70.6116 52.5183 70.6422C52.5591 70.6874 52.7048 70.6582 52.7602 70.5766C52.868 70.4163 52.6072 70.0739 52.5562 70.0928H52.5547Z" fill="#CA8D60"/>
<path d="M53.0114 69.1993C53.0318 69.1643 53.1586 69.1614 53.2154 69.2459C53.2562 69.3071 53.2489 69.3975 53.2154 69.4135C53.1556 69.4412 52.9808 69.2518 53.0114 69.1993Z" fill="#CA8D60"/>
<path d="M53.5414 69.3378C53.591 69.2854 53.9057 69.4121 53.932 69.6074C53.9392 69.6613 53.9276 69.7386 53.8853 69.756C53.8139 69.7866 53.6871 69.6307 53.6624 69.5972C53.6143 69.5375 53.5021 69.3772 53.5414 69.3364V69.3378Z" fill="#CA8D60"/>
<path d="M41.3754 40.9406C41.2661 40.996 40.5623 39.7952 40.0857 38.9806C39.8278 38.5405 39.363 37.7449 39.4402 37.691C39.5014 37.6487 39.8686 38.0655 40.0857 38.3365C41.0257 39.5096 41.4876 40.8838 41.3754 40.9406Z" fill="#CA8D60"/>
<path d="M42.3619 36.2527C42.4377 36.2221 42.2031 34.966 41.3448 33.7973C40.759 32.9987 40.0274 32.4391 39.9808 32.4829C39.9444 32.5178 40.3466 32.9302 40.8493 33.6239C41.9364 35.1248 42.2876 36.2833 42.3619 36.2527Z" fill="#CA8D60"/>
<path d="M50.2492 42.1138C50.2944 42.1662 49.8179 42.7113 49.2262 43.1557C48.3344 43.826 47.361 44.1321 47.3289 44.0679C47.3129 44.0359 47.5373 43.9178 48.2222 43.4719C49.6139 42.5641 50.204 42.0599 50.2492 42.1138Z" fill="#CA8D60"/>
<path d="M52.0894 38.8016C52.0311 38.7127 51.1597 39.1877 50.2664 39.6759C49.733 39.9674 49.4664 40.1131 49.4853 40.1597C49.5174 40.2413 50.2941 40.0883 51.011 39.6949C51.6231 39.3597 52.1389 38.8773 52.0894 38.8016Z" fill="#CA8D60"/>
<path d="M40.6438 44.7864C40.622 44.7471 40.16 45.0808 39.3411 45.2454C38.8689 45.3401 38.5469 45.3241 38.5469 45.3576C38.5469 45.397 39.019 45.4961 39.5261 45.3955C40.1979 45.2615 40.6657 44.8287 40.6424 44.7879L40.6438 44.7864Z" fill="#CA8D60"/>
<path d="M32.0623 45.12C32.0638 45.1535 31.6587 45.1302 30.984 45.3182C30.251 45.5222 29.805 45.8064 29.7803 45.7641C29.7599 45.7277 30.0615 45.4683 30.4506 45.2934C31.2419 44.935 32.0608 45.0719 32.0623 45.12Z" fill="#CA8D60"/>
<path d="M37.0842 60.0903C37.09 60.1253 36.2026 60.1792 34.8022 60.6863C33.6641 61.0987 32.609 61.6583 32.1981 61.8769C31.4826 62.2587 31.0556 62.5327 31.0323 62.4977C30.9988 62.4481 31.7624 61.804 32.5449 61.3319C34.7264 60.0175 37.074 60.0364 37.0842 60.0918V60.0903Z" fill="#CA8D60"/>
<path d="M26.6977 64.6965C26.6511 64.6586 26.262 65.2823 25.2653 66.0546C24.3326 66.7774 23.5574 67.098 23.5909 67.1709C23.6186 67.2321 24.1971 67.0878 24.7436 66.7993C26.0973 66.0838 26.7618 64.7504 26.6963 64.6965H26.6977Z" fill="#CA8D60"/>
<path d="M42.6542 36.7861C42.5886 36.7687 42.4852 36.9421 42.4429 37.047C42.2986 37.404 42.5143 37.8135 42.6047 37.8033C42.7373 37.7887 42.7985 36.8269 42.6542 36.7861Z" fill="#CA8D60"/>
<path d="M31.987 30.995C31.8034 30.8128 31.2307 31.081 31.2424 31.2179C31.254 31.3549 31.8602 31.5181 32.0118 31.3054C32.073 31.2194 32.0613 31.0693 31.987 30.995Z" fill="#CA8D60"/>
<path d="M30.8339 31.2296C30.7975 31.1888 30.5775 31.3346 30.1388 31.626C29.7192 31.9058 29.4423 32.0894 29.4685 32.1462C29.4977 32.2075 29.8765 32.1288 30.2 31.935C30.6124 31.6872 30.882 31.2836 30.8325 31.2282L30.8339 31.2296Z" fill="#CA8D60"/>
<path d="M34.5549 58.5515C34.5491 58.4728 33.9006 58.3518 33.2653 58.5763C32.6751 58.7846 32.2569 59.232 32.2977 59.2961C32.3283 59.3442 32.6197 59.1504 33.2653 58.9245C34.0901 58.6345 34.5608 58.6214 34.5549 58.5529V58.5515Z" fill="#CA8D60"/>
<path d="M45.4445 59.7666C45.4868 59.6631 44.5061 59.0657 44.3662 59.2216C44.3152 59.2784 44.3778 59.4314 44.4536 59.5189C44.509 59.5845 44.5891 59.6355 44.9491 59.7054C45.2711 59.7681 45.4314 59.8001 45.4445 59.7681V59.7666Z" fill="#CA8D60"/>
</g>
<defs>
<clipPath id="clip0_2353_8766">
<rect width="53.4456" height="78" fill="white" transform="translate(13 1.52246)"/>
</clipPath>
</defs>
</svg>
