<svg width="80" height="80" viewBox="0 0 80 80" fill="none" xmlns="http://www.w3.org/2000/svg">
<path d="M79.6283 28.7027C79.4626 28.4593 79.2532 28.2172 79.0476 28.0063C79.0338 27.9901 79.0201 27.9751 79.0064 27.9589C78.8905 27.8254 78.7646 27.6781 78.6238 27.5121C77.4461 26.1282 76.8553 25.4343 76.5874 24.9389C76.3007 24.4073 76.2023 24.0603 76.0988 23.6922C75.9792 23.2642 75.8546 22.8211 75.4233 22.0836C75.1155 21.5557 74.8737 21.1439 74.5721 20.8507C74.784 20.5736 74.8725 20.3028 74.8339 20.047C74.8176 19.9422 74.7852 19.8723 74.7578 19.8099C74.7454 19.7837 74.7329 19.7562 74.7217 19.7263C74.6357 19.4892 74.698 19.1772 74.9049 18.7991C74.9273 18.7579 74.9248 18.7067 74.8974 18.668C74.7902 18.5145 74.7167 18.3373 74.6843 18.1551C74.6369 17.8881 74.6843 17.6597 74.7329 17.5162C74.7454 17.4787 74.7391 17.4388 74.7179 17.4064C74.6955 17.3739 74.6606 17.354 74.622 17.3515C74.4974 17.344 74.3902 17.3065 74.3129 17.2416C74.0923 17.0569 74.0649 16.6464 74.2493 16.2658C74.2655 16.2321 74.2655 16.1921 74.2493 16.1572C74.2331 16.1235 74.202 16.0985 74.1646 16.0898C74.1085 16.0773 73.8219 15.9975 73.6736 15.7167C73.4841 15.3598 73.6848 15.0029 73.6935 14.9879C73.7134 14.9517 73.7159 14.908 73.6972 14.8706C73.6798 14.8331 73.6436 14.8082 73.6025 14.8019C73.4766 14.7832 73.0442 14.6934 72.775 14.3028C72.6204 14.0781 72.5806 13.8448 72.5743 13.6888C72.5731 13.6513 72.5544 13.6164 72.5232 13.5939C72.4933 13.5715 72.4534 13.564 72.4173 13.574C72.4011 13.579 72.0073 13.6813 71.6932 13.4092C71.3729 13.1322 71.4253 12.7204 71.4277 12.7029C71.4327 12.668 71.4228 12.633 71.4003 12.6068C71.3779 12.5794 71.3455 12.5631 71.3106 12.5619L70.6289 12.5245C70.594 12.3947 70.5491 12.2674 70.4943 12.1463C70.2226 11.5448 69.7727 11.2154 69.5571 11.0556L69.5022 11.0145C68.7557 10.4454 68.6672 9.17001 68.5326 7.23946C68.4765 6.44328 68.4915 5.62838 68.575 4.81847C68.5812 4.75733 68.5426 4.70117 68.484 4.68494C68.4254 4.66872 68.3631 4.69742 68.3382 4.75358C67.8771 5.75692 67.3711 7.35677 67.5854 9.27983C67.6353 9.72784 67.7674 10.9196 68.4703 12.1938C68.9015 12.9762 69.2629 13.2807 69.6817 13.6326C70.0618 13.9533 70.493 14.3165 71.0875 15.1376C72.1419 16.5965 72.6167 17.9754 72.8273 18.8739C72.9171 19.2533 72.9831 19.6389 73.0267 20.027C72.8485 19.876 72.7226 19.6826 72.6753 19.4692C72.6217 19.2234 72.6803 19.0012 72.7401 18.859C72.7638 18.8028 72.7438 18.7392 72.6927 18.7055C72.5295 18.6006 72.1406 18.3024 72.0484 17.8007C72.0222 17.6572 72.0222 17.5087 72.0484 17.3589C72.0584 17.3028 72.0297 17.2466 71.9774 17.2229C71.8926 17.1842 71.6047 17.0307 71.4863 16.6901C71.3978 16.4342 71.4489 16.2071 71.4863 16.0948C71.4988 16.0586 71.4938 16.0199 71.4739 15.9887C71.4539 15.9575 71.4203 15.9363 71.3829 15.9313C71.358 15.9288 70.7734 15.8514 70.5254 15.3473C70.3821 15.0553 70.4195 14.7707 70.4544 14.6272C70.4631 14.591 70.4544 14.5511 70.432 14.5211C70.4095 14.4912 70.3734 14.4737 70.336 14.4725C70.1977 14.47 69.7216 14.43 69.4038 14.0407C69.2442 13.8448 69.1832 13.6314 69.1595 13.4866C69.1495 13.423 69.0922 13.3768 69.0286 13.3818C68.6672 13.4055 68.3282 13.2445 68.1475 12.9612C67.9705 12.6842 68.0054 12.3872 68.0291 12.2724C68.0428 12.2062 68.0004 12.1413 67.9356 12.1251L66.824 11.868C66.8613 11.7058 66.8564 11.5548 66.809 11.4175C66.7517 11.2516 66.632 11.1081 66.4501 10.9883C66.0002 10.69 64.866 9.06269 64.4361 7.53273C64.1432 6.4932 64.1444 5.32513 64.4361 4.15582C64.4523 4.08968 64.4136 4.02354 64.3488 4.00482C64.2828 3.9861 64.2155 4.02354 64.1968 4.08843C63.267 7.13838 63.3356 9.61553 64.3987 11.4525C64.4909 11.6122 65.2923 12.4845 67.2577 14.6185L67.3486 14.7171C69.3203 16.8573 70.3098 17.9317 70.5354 19.564C70.594 19.9883 70.5977 20.4226 70.5466 20.8581C70.5404 20.8594 70.5329 20.8606 70.5267 20.8619C69.8325 21.0029 69.6954 21.0279 69.4698 20.9467C68.7968 20.7071 68.4516 20.0794 68.1164 19.4729C68.0403 19.3344 67.9618 19.1922 67.8796 19.0561C67.1081 17.767 65.8593 16.7 64.1669 15.8851C64.132 15.8677 64.0908 15.8689 64.0559 15.8864C64.0211 15.9039 63.9974 15.9376 63.9899 15.9762C63.8316 16.9122 63.788 18.3423 64.4772 19.8411C64.9371 20.8407 65.5777 21.5408 66.0338 21.9526C66.4738 22.3494 66.9648 22.6826 67.497 22.9472C65.8082 24.6481 64.1594 26.3216 62.5928 27.9214L62.184 28.3395C59.0147 31.5791 58.1635 32.4489 56.5421 32.8583C55.4877 33.1241 54.8596 33.0005 54.1318 32.8583C53.4388 32.7222 52.6524 32.5675 51.3426 32.696C49.3547 32.892 48.243 33.5309 46.9544 34.2722C46.2004 34.7052 45.4214 35.1545 44.3708 35.5725C42.4491 36.3387 41.4047 36.2788 39.8231 36.189C38.4572 36.1116 36.7585 36.0143 33.806 36.3612C30.8548 36.7069 28.1354 37.0264 26.008 37.8126C25.7014 37.9024 25.3737 38.0197 25.0359 38.1844C23.5217 38.5064 22.2118 39.0967 21.1425 39.944C20.2115 40.6816 19.3155 41.7074 18.8643 42.2527C17.9906 43.3085 17.5083 43.8912 17.1108 44.2694C16.5873 44.766 16.014 45.2153 15.4071 45.6034C15.3585 45.6346 15.3373 45.6957 15.3572 45.7507C15.3772 45.8056 15.432 45.8393 15.4906 45.8318L16.2097 45.7394C16.0016 46.0177 15.7536 46.2548 15.4682 46.4482C15.2712 46.5818 15.0569 46.6916 14.8326 46.7765C14.7752 46.7977 14.7416 46.8588 14.754 46.9187C14.7665 46.9786 14.8213 47.0198 14.8824 47.0173L15.6551 46.9774C15.4108 47.1945 15.1691 47.4154 14.9323 47.6388C14.7839 47.7785 14.6406 47.9183 14.4986 48.0568C14.4637 48.0905 14.4524 48.1417 14.4686 48.1879C14.4848 48.234 14.5272 48.2652 14.5758 48.2702L15.0893 48.3139C14.6992 48.6122 14.2817 48.8742 13.8442 49.0926C13.1413 49.4433 12.3886 49.6854 11.6084 49.8089C11.5498 49.8177 11.5062 49.8676 11.5037 49.9275C11.5012 49.9874 11.5411 50.0398 11.5997 50.0535C12.011 50.1521 12.426 50.202 12.8397 50.202C13.0902 50.202 13.3407 50.1833 13.59 50.1471C13.7844 50.1222 13.9751 50.0835 14.1621 50.0323C15.2413 49.7565 15.9729 49.2187 16.4091 48.7919C17.0809 48.1367 17.3787 47.4591 17.6417 46.8613C17.8536 46.3796 17.9059 46.1275 17.9558 45.8829C17.9994 45.6708 18.0442 45.4524 18.1963 45.0668C18.6774 43.8488 19.4613 42.8567 20.467 42.1953C20.9468 41.8796 21.4803 41.6412 22.0535 41.4827C22.0361 41.5701 22.0187 41.6674 21.9987 41.7797C21.8753 42.4574 21.646 43.7203 20.9107 46.4907C19.885 50.3555 19.4775 51.1642 18.6948 51.7769C17.3575 52.8239 15.2027 53.2021 14.3901 53.3456C13.7657 53.4554 13.499 53.4566 13.3233 53.4566C13.1575 53.4566 13.0479 53.4566 12.8111 53.5415C11.7492 53.9184 11.2557 54.8406 10.6675 56.4305C10.4556 56.8123 10.3397 57.1892 10.23 57.6622C9.82372 58.824 9.31898 60.2641 8.56996 62.0212L8.54254 62.0861C8.23969 62.7987 7.60782 64.2824 6.29797 65.8449C5.79323 66.4476 5.23115 67.0104 4.6267 67.5183C4.6105 67.5321 4.59679 67.5508 4.58931 67.5707L4.16682 68.7188L1.36766 69.404C1.32653 69.4139 1.29413 69.4439 1.27917 69.4838L0.00671125 73.1166C-0.0094905 73.164 0.00421899 73.2176 0.0416076 73.2513C0.0652871 73.2726 0.0939517 73.2825 0.123863 73.2825C0.142557 73.2825 0.161251 73.2788 0.178699 73.2701L6.92486 69.9568C6.95352 69.9431 6.97471 69.9181 6.98592 69.8894C7.20153 69.3191 7.43583 68.7426 7.68385 68.1748C8.61981 66.0258 9.2766 65.0562 10.0381 63.9355C10.6313 63.0607 11.3043 62.0674 12.1991 60.3452C12.2876 60.1743 12.3711 60.0108 12.4497 59.856C13.0167 58.7429 13.3594 58.0715 14.1807 57.6584C14.6755 57.4088 15.179 57.3327 15.6264 57.3302C14.3988 58.7429 13.4168 60.2654 12.7064 61.8615C12.5419 62.2321 12.35 62.6988 12.1468 63.1943C11.3093 65.2346 10.1627 68.03 9.06723 68.654L9.02361 68.6789C8.85536 68.7713 8.50515 68.9647 8.17488 69.3503C7.92563 69.6411 7.83963 69.8682 7.76361 70.0691C7.69257 70.2575 7.63026 70.4198 7.4458 70.6219C7.2464 70.8403 6.88622 71.0051 6.08735 71.357C5.67981 71.5367 5.2648 71.7076 4.85228 71.8649C4.80866 71.8811 4.7775 71.921 4.77252 71.9672L4.42231 75.122C4.41733 75.1719 4.441 75.2193 4.48462 75.2443C4.50332 75.2555 4.52451 75.2605 4.54569 75.2605C4.57186 75.2605 4.59928 75.2518 4.62172 75.2356C5.3483 74.6815 6.10605 74.1474 6.87376 73.6482C7.6664 73.1328 8.4877 72.6411 9.31524 72.1868C9.33269 72.1769 9.34764 72.1631 9.35886 72.1469C9.87731 71.3682 10.3808 70.562 10.8581 69.7509C11.844 68.0749 12.2839 67.1065 12.6715 66.2529C13.0267 65.4717 13.3333 64.7966 13.9751 63.7633C14.9223 62.2396 16.2197 60.153 18.7035 58.7404C19.5074 58.2836 20.376 57.9317 21.2858 57.6909C22.6393 57.5973 24.0401 57.3789 25.3712 57.0407C28.5779 56.2258 30.7838 54.8718 31.4206 53.3269C31.4568 53.2407 31.4929 53.1397 31.5341 53.0273C31.6998 52.5681 31.9516 51.8755 32.5485 51.1267C32.8614 50.7349 33.5929 49.8177 34.6361 49.643C35.5172 49.4957 36.2812 49.9275 36.6077 50.1122L36.6551 50.1384C37.5038 50.6138 38.5345 50.9134 39.6237 51.0906C42.282 51.732 44.7086 51.3913 46.3724 50.9932C46.5219 50.9683 46.6628 50.9433 46.7936 50.9171C48.9983 50.4866 51.0995 49.4994 53.0537 47.9832C53.3055 47.801 53.5435 47.6201 53.7678 47.4416C53.9236 47.5614 54.0819 47.65 54.2227 47.7137C55.2086 48.3426 56.6031 47.8821 57.2101 47.6812L57.2674 47.6625C59.4385 46.9487 62.457 46.4233 66.4887 46.0576C65.8145 46.9736 65.1627 47.8996 64.5507 48.8131C64.3688 49.0851 64.1968 49.3435 64.0348 49.5893C62.8583 51.3688 62.1491 52.4433 60.8679 52.7765C60.6224 52.8402 60.3694 52.8739 60.1127 52.8788C60.0778 52.8788 60.0441 52.8951 60.0217 52.9213C59.998 52.9475 59.9868 52.9824 59.9906 53.0174C60.018 53.2844 60.018 53.7861 59.7039 54.1318C59.4995 54.3564 59.2091 54.455 58.5087 54.5373C57.7447 54.6272 56.9534 54.6409 56.157 54.5798C56.1134 54.576 56.0697 54.5972 56.0448 54.6334L54.2414 57.2254C54.2153 57.2628 54.2115 57.3115 54.2327 57.3527C54.2526 57.3939 54.2938 57.4201 54.3399 57.4213C54.5019 57.4276 54.6627 57.4301 54.8234 57.4301C56.2255 57.4301 57.5877 57.2117 58.8801 56.7774C59.583 56.5415 60.6449 56.1859 61.7379 55.3348C62.4046 54.8156 62.7797 54.3539 63.1848 53.8086C63.6085 53.3581 63.793 53.0561 64.036 52.6779C65.8082 50.4504 68.2161 48.2765 69.2754 47.3206L69.2966 47.3018C69.7976 46.8501 70.8395 45.9104 70.8233 44.7623C70.8133 44.0622 70.4781 43.5293 70.4644 43.5069C70.4531 43.4894 70.1939 43.0876 69.7266 42.7893C69.1171 42.4 66.3691 42.4199 62.3922 42.8105C65.2088 40.1699 66.9299 37.7015 67.5107 35.4714L67.5393 35.3579C67.6951 34.7414 68.1114 33.1041 69.2754 31.367C69.7116 30.7168 70.2176 30.1053 70.7784 29.5475C70.8046 29.57 70.8308 29.5912 70.8545 29.6099C71.7032 30.285 72.5133 30.2775 73.2959 30.2701C74.0512 30.2626 74.8326 30.2551 75.7225 30.8279C75.7574 30.8503 75.7947 30.8753 75.8359 30.9015C76.2172 31.1548 76.7918 31.5367 77.5495 31.4843C77.9471 31.4568 78.24 31.3183 78.4531 31.2172C78.9715 30.9726 79.8601 30.4485 79.986 29.691C80.0408 29.3628 79.9374 29.1145 79.6246 28.7076L79.6283 28.7027ZM77.218 26.2292C77.2379 26.2617 77.2566 26.2966 77.2753 26.3278C77.2192 26.2517 77.1657 26.1768 77.1146 26.102C77.1482 26.1431 77.1819 26.1843 77.2168 26.228L77.218 26.2292ZM21.0403 41.5888C21.1961 41.5077 21.3781 41.4303 21.5899 41.3642C21.4017 41.4303 21.2185 41.5052 21.0403 41.5888ZM19.2357 42.7856C19.1784 42.8555 18.8593 43.2535 18.3645 43.7415C18.1726 43.9312 17.9533 44.1333 17.7003 44.3455C17.38 44.615 16.9263 44.9495 16.3144 45.2715C16.6521 45.0144 16.9762 44.7386 17.284 44.4478C17.6928 44.0597 18.1788 43.4732 19.0587 42.4099C19.5036 41.8721 20.386 40.8625 21.3008 40.1387C22.1221 39.4873 23.093 38.9931 24.1922 38.6587C20.8434 41.2394 19.6021 42.3388 19.2357 42.7868V42.7856ZM30.7676 53.9433C30.8349 53.8522 30.8985 53.7611 30.9595 53.6738C30.9009 53.7649 30.8374 53.8547 30.7676 53.9433ZM67.4733 48.6409C67.8235 48.2827 68.1238 47.9994 68.4092 47.7686C68.1276 48.0269 67.8123 48.3201 67.4733 48.6409ZM79.2831 29.5587C79.1871 29.6024 79.0314 29.3166 78.6363 29.0483C78.5615 28.9984 78.058 28.6627 77.9147 28.7937C77.8249 28.8761 77.8835 29.1344 78.0106 29.3042C78.1378 29.4751 78.2724 29.4739 78.7111 29.7185C79.0737 29.9206 79.0912 29.983 79.0924 30.0155C79.1036 30.1802 78.7908 30.4098 78.4668 30.4298C78.0393 30.4572 77.8848 30.1003 77.3314 29.9943C77.051 29.9406 76.808 29.978 76.6522 30.0155C77.8698 30.4061 78.1128 30.6057 78.0941 30.7168C78.0767 30.8266 77.7938 30.894 77.5844 30.8978C77.2367 30.9028 76.975 30.733 76.9164 30.6956C76.6297 30.5159 76.0614 30.3037 74.8314 30.149C74.2917 30.0042 73.7882 30.008 73.2947 30.0142C73.0529 30.0167 72.8161 30.0192 72.5793 30.0017C72.2166 29.9269 71.8153 29.7908 71.4215 29.5487C71.242 29.4389 70.8819 29.2118 70.5516 28.7838C70.4768 28.6864 70.1989 28.312 69.9995 27.6157C69.8587 27.119 69.8151 26.6623 69.8113 26.3066C69.8624 25.9896 69.9472 25.7238 70.0194 25.5366C70.0444 25.473 70.0132 25.4006 69.9484 25.3744C69.8836 25.3495 69.8126 25.3807 69.7864 25.4455C69.5982 25.9272 69.3365 26.8931 69.6892 27.9514C69.7104 28.015 69.734 28.0762 69.7577 28.1373C69.7627 28.3919 69.754 28.664 69.7228 28.9535C69.7016 29.1482 69.6331 29.6773 69.405 30.3549C69.0299 31.4656 68.6124 31.8225 68.0902 32.7547C67.4945 33.8167 67.6702 34.0064 66.8813 36.1104C66.5884 36.8916 66.2968 37.5779 66.0326 38.1595C65.205 39.4923 64.0273 40.8925 62.5056 42.3513C63.3368 41.0934 64.3289 39.3862 65.2063 37.2572C66.2021 34.84 66.7679 32.5687 66.5847 32.4989C66.4301 32.439 65.9478 34.09 64.3576 36.2165C63.4615 37.4145 63.3256 37.2759 62.0669 38.9145C61.1259 40.1375 60.7608 40.7889 60.4542 40.699C60.0641 40.5842 60.4355 39.4523 59.8809 37.6191C59.3674 35.9219 58.5424 35.2169 58.2046 34.9635C57.8083 34.6678 57.3372 34.4369 57.2923 34.4968C57.2375 34.5704 57.8868 35.0047 58.4639 35.7659C58.7144 36.0966 59.3487 36.9527 59.4983 38.1295C59.5519 38.5538 59.4571 38.3654 59.0534 40.7851C58.9088 41.6499 58.8402 42.1541 58.4165 42.5797C58.2308 42.7656 58.1635 42.7494 57.5678 43.1113C56.8885 43.5231 56.0024 44.1246 56.051 44.2157C56.0884 44.2868 56.6592 43.9674 57.493 43.7427C58.4963 43.4732 59.2852 43.5019 59.6827 43.5044C60.3383 43.5069 61.3116 43.4432 62.8146 43.2036C63.1985 43.1787 63.6335 43.1537 64.1108 43.1275C64.7078 43.0951 65.281 43.0738 66.4015 43.0314C68.995 42.9341 69.6406 42.9291 69.9658 43.3821C70.1279 43.6067 70.1428 43.8663 70.1727 44.3854C70.1864 44.63 70.2313 45.3937 69.8699 46.1213C69.5371 46.7939 69.0112 47.1259 68.1039 47.6987C67.0819 48.3439 66.7716 48.2777 66.2581 48.8455C65.9777 49.1563 65.9877 49.2673 65.4942 50.0885C65.4942 50.0885 65.0206 50.8759 64.365 51.7769C63.7456 52.6268 63.2359 53.3281 62.376 54.0556C61.7204 54.6097 61.0798 54.9404 59.7986 55.6006C58.8153 56.1072 58.3916 56.2408 58.1922 56.0623C58.0364 55.9238 58.0227 55.5993 58.1448 55.3772C58.429 54.8593 59.254 55.2462 59.9744 54.7083C60.4641 54.3414 60.347 53.9658 60.8655 53.2582C60.9465 53.1484 61.0312 53.0498 61.116 52.9562C62.3697 52.5494 63.0888 51.4662 64.2404 49.7216C64.4024 49.477 64.5732 49.2187 64.7551 48.9466C65.4157 47.962 66.1211 46.9636 66.8514 45.9778C66.88 45.9378 66.8838 45.8854 66.8601 45.843C66.8364 45.8006 66.7891 45.7756 66.7405 45.7794C66.6208 45.7893 66.5062 45.8006 66.3878 45.8118C62.0407 45.4948 59.4733 46.1725 57.9055 46.9025C57.3547 47.1583 55.9887 47.8572 54.8932 47.3056C54.3636 47.0398 54.2252 46.6467 53.3441 45.2877C52.3234 43.7128 51.8124 42.9266 51.4136 42.6745C50.3032 41.9769 49.3709 42.7319 46.4708 43.12C45.6134 43.2348 44.0966 43.2174 41.0619 43.1837C36.9405 43.1375 36.3348 42.9403 35.759 42.6096C34.1774 41.7024 34.089 40.5156 33.0645 40.5068C31.7871 40.4969 30.3538 42.3338 30.1793 44.0971C30.0198 45.7045 31.0169 46.1363 30.8798 48.1754C30.7788 49.6692 30.1544 50.7574 30.3488 50.8522C30.5183 50.9346 31.063 50.1446 31.4518 49.5781C32.8489 47.5389 32.7816 46.8913 33.5094 46.4557C34.1974 46.0439 35.0287 46.2498 36.67 46.6467C39.1539 47.2469 39.352 47.7985 40.9971 48.1766C41.4221 48.274 44.0032 48.8343 46.6827 47.816C47.3594 47.5589 48.6207 46.9811 50.8827 46.1375C51.3949 45.9466 52.357 45.6009 52.8556 46.0314C53.1372 46.2748 53.0537 46.5793 53.3516 47.0073C53.0649 47.0972 52.878 47.4678 52.8132 47.5826C52.4119 48.2989 51.3912 48.6509 49.928 49.155C49.2937 49.3734 47.656 49.8925 43.8187 50.3019C40.607 50.6438 39.5639 50.514 39.1302 50.4504C38.0846 50.2969 37.2034 50.0323 36.5254 49.7802C36.1129 49.5618 35.405 49.2561 34.5912 49.3934C33.4558 49.5843 32.6806 50.5539 32.3504 50.9683C31.7497 51.7208 31.4867 52.4134 31.3147 52.8876C31.0804 53.2395 30.7938 53.6051 30.4423 53.962C29.2023 55.2212 27.8226 55.6892 26.337 56.1921C24.4452 56.8335 22.8973 56.9733 22.5184 57.0045C20.907 57.1355 20.2477 56.9259 17.5869 56.9883C16.9612 57.0033 16.4191 57.0282 15.9866 57.0532C15.948 57.0345 15.9031 57.037 15.8657 57.0607C15.7324 57.0682 15.6102 57.0769 15.5031 57.0844C15.5031 57.0844 15.5031 57.0844 15.5043 57.0844C15.0544 57.0994 14.5521 57.188 14.0623 57.435C13.4105 57.7633 13.0441 58.225 12.664 58.8989C12.3213 59.3344 11.4127 60.7121 10.554 62.1772C9.1607 64.552 8.60111 65.9522 7.01085 68.2946C6.88996 68.4718 6.22195 69.4414 5.05916 70.3761C4.89216 70.5109 4.56563 70.7729 4.21169 71.0088L3.28819 71.4631C3.14611 71.4918 3.02397 71.483 2.93798 71.4181C2.70617 71.2422 2.74979 70.6706 2.98036 70.2925C3.30938 69.7534 3.86522 69.8595 4.48712 69.3366C4.94575 68.951 5.09904 68.5092 5.27228 68.1261C5.92907 66.6685 6.76782 66.2567 7.73245 64.8977C8.58242 63.7009 8.9077 62.599 9.55702 60.3939C9.62432 60.1668 9.68289 59.9559 9.73648 59.755C10.0231 58.99 10.2624 58.3061 10.4743 57.6996C10.7647 56.8672 11.004 56.1859 11.2457 55.6305C12.0645 54.7195 13.0229 54.2678 13.3756 54.1056C15.0968 53.3169 15.9343 53.826 17.3426 53.1496C17.8025 52.9288 18.3658 52.5594 18.9303 51.9005C19.7055 51.2553 20.138 50.3443 21.1438 46.5543C21.8305 43.9661 22.0785 42.6882 22.2093 41.9732C22.2928 41.7847 22.3888 41.5925 22.4985 41.4029C23.1939 40.1924 24.1548 39.5197 24.662 39.1728C25.8597 38.3542 27.0275 38.0185 28.5866 37.7077C30.9533 37.236 33.2228 36.783 36.4781 36.9427C39.6524 37.0987 40.1359 37.6603 42.4391 37.3034C43.385 37.1574 44.8033 36.9378 46.3848 36.0717C48.5422 34.8899 48.5347 33.8566 50.2882 33.4585C50.53 33.4036 51.6055 33.3649 53.7454 33.2888C54.2015 33.2726 54.6116 33.2588 54.9643 33.2464C55.4254 33.29 55.9277 33.2701 56.5982 33.1016C58.2869 32.6748 59.1493 31.7938 62.3573 28.5155L62.766 28.0974C64.3314 26.4988 65.979 24.8278 67.6664 23.1281C67.8085 23.0919 67.9518 23.087 68.0864 23.1194C68.4653 23.2105 68.6697 23.5612 68.7233 23.661C68.6622 23.4638 68.5787 23.208 68.4691 22.9122C68.3756 22.6602 68.1712 22.136 67.8484 21.4946C67.6814 21.1614 67.4272 20.7421 66.9262 19.9172C66.4002 19.0511 66.0513 18.5033 65.4306 17.9742C65.4306 17.9742 65.0954 17.6884 65.0492 17.7358C64.9919 17.7945 65.6786 18.4484 66.0675 19.5041C66.2332 19.9521 66.1921 20.062 66.1472 20.0932C66.0139 20.1843 65.6063 19.7587 65.559 19.8061C65.5178 19.8473 65.7584 20.2192 66.1323 20.5873C66.571 21.0179 66.7828 21.0378 66.976 21.3835C67.1355 21.6706 67.2091 22.0512 67.1031 22.1161C67.0358 22.1572 66.8751 22.0811 65.9889 21.1439C65.3234 20.4388 64.9894 20.0869 64.8436 19.8698C64.7501 19.7325 64.6417 19.5516 64.5333 19.3282C64.0821 18.1239 64.0933 16.9933 64.2092 16.1846C65.1701 16.6638 65.9777 17.2292 66.627 17.8718C66.8688 18.1664 67.0271 18.4422 67.1355 18.6755C67.305 19.0412 67.3113 19.2146 67.5967 19.8386C67.9481 20.6073 68.1238 20.9917 68.4553 21.24C68.8492 21.5345 69.3115 21.5308 70.2213 21.5108C71.915 21.4734 72.0771 21.1577 72.7351 21.3997C73.5838 21.7117 74.1122 22.5503 74.2942 22.8386C74.4276 23.0508 74.5921 23.3727 74.9198 24.0179C75.3124 24.7891 75.4071 25.0325 75.4607 25.0163C75.5517 24.9888 75.4956 24.2276 75.1741 23.4975C75.0432 23.2005 74.8438 22.7463 74.4213 22.287C74.0948 21.9314 73.7371 21.6843 73.8057 21.4372C73.8244 21.3686 73.8792 21.2937 73.954 21.2675C74.2768 21.1527 74.8264 21.9613 74.8974 22.0699C75.3997 22.8199 75.5093 23.5712 75.5343 23.6947C75.695 24.4959 76.196 25.604 77.6916 26.9443C77.8735 27.1789 78.0493 27.3761 78.2063 27.5333C78.5752 27.9027 79.1423 28.3757 79.2993 29.1269C79.3068 29.1619 79.3778 29.5163 79.2781 29.5625L79.2831 29.5587Z" fill="#C98B5F"/>
<path d="M50.4214 37.6258C50.3862 37.6884 51.1238 37.922 51.8565 38.803C52.9189 40.0795 52.6231 41.0962 53.7421 42.2239C54.121 42.605 54.792 43.131 55.0274 42.9574C55.332 42.7316 54.8952 41.3468 54.2129 40.3131C52.8597 38.2627 50.4831 37.5109 50.4202 37.6245L50.4214 37.6258Z" fill="#C98B5F"/>
<path d="M15.4308 54.9812C14.7638 54.9785 14.167 54.8399 13.5037 55.2609C12.6411 55.8095 12.2743 56.9203 12.1008 57.7815C12.39 57.3138 12.8613 56.6995 13.5886 56.2881C14.407 55.8232 14.7601 56.0618 15.9341 55.7752C17.5819 55.372 18.7264 54.4532 19.3478 53.9541C20.1059 53.3466 20.9094 52.5306 20.8356 52.414C20.7064 52.2097 18.4359 54.9922 15.4321 54.9812H15.4308Z" fill="#C98B5F"/>
<path d="M73.4368 23.6458C73.0127 23.457 72.55 23.4896 72.1614 23.5167C71.8634 23.5373 71.414 23.5698 71.2909 23.7748C71.2212 23.892 71.2835 24.02 71.3547 24.1621C71.3992 24.2532 71.5075 24.4625 71.7833 24.6241C72.3602 24.9604 73.1269 24.7662 73.2099 24.7445C73.4309 24.686 73.5925 24.6014 73.6889 24.5417C74.073 25.0103 74.5298 25.5418 74.6098 25.5114C74.6588 25.493 74.5505 25.2739 74.42 25.0125C74.0226 24.2174 73.8239 23.8193 73.4353 23.6458H73.4368Z" fill="#C98B5F"/>
<path d="M76.6318 27.3746C75.5408 26.1972 75.4154 26.1523 75.3532 26.1946C75.2381 26.273 75.3014 26.689 75.4557 26.9817C75.5788 27.2141 75.7342 27.3194 76.3522 27.6866C77.2303 28.2079 77.2913 28.2182 77.3074 28.195C77.3316 28.1591 77.2476 28.0397 76.6318 27.3759V27.3746Z" fill="#C98B5F"/>
</svg>
